<svg xmlns="http://www.w3.org/2000/svg" xmlns:xlink="http://www.w3.org/1999/xlink" width="1858" height="917" version="1.1">
<style type="text/css">
.l0{
 fill: #ffffff;
  stroke: #ffffff;
  stroke-linecap:round;
  stroke-linejoin:round;
  stroke-width: 0.639181;
}
.l1{
 fill: #0044ee;
  stroke: #0044ee;
  stroke-linecap:round;
  stroke-linejoin:round;
  stroke-width: 0.639181;
}
.l2{
  fill: none;
  stroke: #aaaaaa;
  stroke-linecap:round;
  stroke-linejoin:round;
  stroke-width: 0.639181;
}
.l3{
 fill: #222222; fill-opacity: 0.5;
  stroke: #222222;
  stroke-linecap:round;
  stroke-linejoin:round;
  stroke-width: 0.639181;
}
.l4{
 fill: #229900;
  stroke: #229900;
  stroke-linecap:round;
  stroke-linejoin:round;
  stroke-width: 0.639181;
}
.l5{
 fill: #bb2200;
  stroke: #bb2200;
  stroke-linecap:round;
  stroke-linejoin:round;
  stroke-width: 0.639181;
}
.l6{
 fill: #00ccee; fill-opacity: 0.5;
  stroke: #00ccee;
  stroke-linecap:round;
  stroke-linejoin:round;
  stroke-width: 0.639181;
}
.l7{
 fill: #ff0000; fill-opacity: 0.5;
  stroke: #ff0000;
  stroke-linecap:round;
  stroke-linejoin:round;
  stroke-width: 0.639181;
}
.l8{
 fill: #888800; fill-opacity: 0.5;
  stroke: #888800;
  stroke-linecap:round;
  stroke-linejoin:round;
  stroke-width: 0.639181;
}
.l9{
 fill: #00aaaa; fill-opacity: 0.5;
  stroke: #00aaaa;
  stroke-linecap:round;
  stroke-linejoin:round;
  stroke-width: 0.639181;
}
.l10{
 fill: #880088;
  stroke: #880088;
  stroke-linecap:round;
  stroke-linejoin:round;
  stroke-width: 0.639181;
}
.l11{
 fill: #00ff00; fill-opacity: 0.5;
  stroke: #00ff00;
  stroke-linecap:round;
  stroke-linejoin:round;
  stroke-width: 0.639181;
}
.l12{
 fill: #0000cc; fill-opacity: 0.5;
  stroke: #0000cc;
  stroke-linecap:round;
  stroke-linejoin:round;
  stroke-width: 0.639181;
}
.l13{
 fill: #666600; fill-opacity: 0.5;
  stroke: #666600;
  stroke-linecap:round;
  stroke-linejoin:round;
  stroke-width: 0.639181;
}
.l14{
  fill: none;
  stroke: #557755;
  stroke-linecap:round;
  stroke-linejoin:round;
  stroke-width: 0.639181;
}
.l15{
 fill: #aa2222; fill-opacity: 0.5;
  stroke: #aa2222;
  stroke-linecap:round;
  stroke-linejoin:round;
  stroke-width: 0.639181;
}
.l16{
 fill: #7ccc40; fill-opacity: 0.5;
  stroke: #7ccc40;
  stroke-linecap:round;
  stroke-linejoin:round;
  stroke-width: 0.639181;
}
.l17{
  fill: none;
  stroke: #00ffcc;
  stroke-linecap:round;
  stroke-linejoin:round;
  stroke-width: 0.639181;
}
.l18{
 fill: #ce0097; fill-opacity: 0.5;
  stroke: #ce0097;
  stroke-linecap:round;
  stroke-linejoin:round;
  stroke-width: 0.639181;
}
.l19{
  fill: none;
  stroke: #d2d46b;
  stroke-linecap:round;
  stroke-linejoin:round;
  stroke-width: 0.639181;
}
.l20{
  fill: none;
  stroke: #ef6158;
  stroke-linecap:round;
  stroke-linejoin:round;
  stroke-width: 0.639181;
}
.l21{
  fill: none;
  stroke: #fdb200;
  stroke-linecap:round;
  stroke-linejoin:round;
  stroke-width: 0.639181;
}
text {font-family: Sans-Serif;}
</style>
<rect class="l0" x="0" y="0" width="1858" height="917"/>
<text fill="#0044ee"  xml:space="preserve" font-size="10.1559" transform="translate(582.064, 26.6755)" >VGND</text>
<text fill="#0044ee"  xml:space="preserve" font-size="10.1559" transform="translate(583.064, 38.5122)" >VPWR</text>
<text fill="#0044ee"  xml:space="preserve" font-size="10.1559" transform="translate(598.064, 50.3489)" >in0</text>
<text fill="#0044ee"  xml:space="preserve" font-size="10.1559" transform="translate(598.064, 62.1855)" >in1</text>
<text fill="#0044ee"  xml:space="preserve" font-size="10.1559" transform="translate(592.064, 74.0222)" >in10</text>
<text fill="#0044ee"  xml:space="preserve" font-size="10.1559" transform="translate(592.064, 85.8589)" >in11</text>
<text fill="#0044ee"  xml:space="preserve" font-size="10.1559" transform="translate(592.064, 97.6956)" >in12</text>
<text fill="#0044ee"  xml:space="preserve" font-size="10.1559" transform="translate(592.064, 109.532)" >in13</text>
<text fill="#0044ee"  xml:space="preserve" font-size="10.1559" transform="translate(592.064, 121.369)" >in14</text>
<text fill="#0044ee"  xml:space="preserve" font-size="10.1559" transform="translate(592.064, 133.206)" >in15</text>
<text fill="#0044ee"  xml:space="preserve" font-size="10.1559" transform="translate(598.064, 145.042)" >in2</text>
<text fill="#0044ee"  xml:space="preserve" font-size="10.1559" transform="translate(598.064, 156.879)" >in3</text>
<text fill="#0044ee"  xml:space="preserve" font-size="10.1559" transform="translate(598.064, 168.716)" >in4</text>
<text fill="#0044ee"  xml:space="preserve" font-size="10.1559" transform="translate(598.064, 180.552)" >in5</text>
<text fill="#0044ee"  xml:space="preserve" font-size="10.1559" transform="translate(598.064, 192.389)" >in6</text>
<text fill="#0044ee"  xml:space="preserve" font-size="10.1559" transform="translate(598.064, 204.226)" >in7</text>
<text fill="#0044ee"  xml:space="preserve" font-size="10.1559" transform="translate(598.064, 216.062)" >in8</text>
<text fill="#0044ee"  xml:space="preserve" font-size="10.1559" transform="translate(598.064, 227.899)" >in9</text>
<text fill="#0044ee"  xml:space="preserve" font-size="10.1559" transform="translate(683.344, 26.6755)" >out0</text>
<text fill="#0044ee"  xml:space="preserve" font-size="10.1559" transform="translate(683.344, 38.5122)" >out1</text>
<text fill="#0044ee"  xml:space="preserve" font-size="10.1559" transform="translate(683.344, 50.3489)" >out2</text>
<text fill="#0044ee"  xml:space="preserve" font-size="10.1559" transform="translate(683.344, 62.1855)" >out3</text>
<text fill="#0044ee"  xml:space="preserve" font-size="10.1559" transform="translate(597.722, 263.779)" >net8</text>
<text fill="#0044ee"  xml:space="preserve" font-size="10.1559" transform="translate(675.946, 263.779)" >_00_</text>
<text fill="#0044ee"  xml:space="preserve" font-size="10.1559" transform="translate(585.885, 328.881)" >net4</text>
<text fill="#0044ee"  xml:space="preserve" font-size="10.1559" transform="translate(585.885, 352.554)" >net5</text>
<text fill="#0044ee"  xml:space="preserve" font-size="10.1559" transform="translate(687.783, 340.717)" >_01_</text>
<text fill="#0044ee"  xml:space="preserve" font-size="10.1559" transform="translate(585.885, 399.901)" >net4</text>
<text fill="#0044ee"  xml:space="preserve" font-size="10.1559" transform="translate(585.885, 423.574)" >net5</text>
<text fill="#0044ee"  xml:space="preserve" font-size="10.1559" transform="translate(585.885, 447.248)" >net6</text>
<text fill="#0044ee"  xml:space="preserve" font-size="10.1559" transform="translate(585.885, 470.921)" >net7</text>
<text fill="#0044ee"  xml:space="preserve" font-size="10.1559" transform="translate(687.783, 435.411)" >_02_</text>
<text fill="#0044ee"  xml:space="preserve" font-size="10.1559" transform="translate(585.885, 518.268)" >net2</text>
<text fill="#0044ee"  xml:space="preserve" font-size="10.1559" transform="translate(585.885, 541.941)" >net3</text>
<text fill="#0044ee"  xml:space="preserve" font-size="10.1559" transform="translate(687.783, 530.104)" >_03_</text>
<text fill="#0044ee"  xml:space="preserve" font-size="10.1559" transform="translate(579.885, 601.125)" >net15</text>
<text fill="#0044ee"  xml:space="preserve" font-size="10.1559" transform="translate(579.885, 624.798)" >net14</text>
<text fill="#0044ee"  xml:space="preserve" font-size="10.1559" transform="translate(687.783, 612.961)" >_04_</text>
<text fill="#0044ee"  xml:space="preserve" font-size="10.1559" transform="translate(727.844, 27.0454)" >net15</text>
<text fill="#0044ee"  xml:space="preserve" font-size="10.1559" transform="translate(727.844, 50.7188)" >net14</text>
<text fill="#0044ee"  xml:space="preserve" font-size="10.1559" transform="translate(731.844, 74.3921)" >_02_</text>
<text fill="#0044ee"  xml:space="preserve" font-size="10.1559" transform="translate(731.844, 98.0655)" >_03_</text>
<text fill="#0044ee"  xml:space="preserve" font-size="10.1559" transform="translate(835.741, 62.5554)" >net19</text>
<text fill="#0044ee"  xml:space="preserve" font-size="10.1559" transform="translate(727.844, 145.412)" >net11</text>
<text fill="#0044ee"  xml:space="preserve" font-size="10.1559" transform="translate(727.844, 169.086)" >net10</text>
<text fill="#0044ee"  xml:space="preserve" font-size="10.1559" transform="translate(835.741, 157.249)" >_05_</text>
<text fill="#0044ee"  xml:space="preserve" font-size="10.1559" transform="translate(727.844, 216.432)" >net13</text>
<text fill="#0044ee"  xml:space="preserve" font-size="10.1559" transform="translate(727.844, 240.106)" >net11</text>
<text fill="#0044ee"  xml:space="preserve" font-size="10.1559" transform="translate(727.844, 263.779)" >net10</text>
<text fill="#0044ee"  xml:space="preserve" font-size="10.1559" transform="translate(727.844, 287.452)" >net12</text>
<text fill="#0044ee"  xml:space="preserve" font-size="10.1559" transform="translate(835.741, 251.942)" >_06_</text>
<text fill="#0044ee"  xml:space="preserve" font-size="10.1559" transform="translate(720.007, 322.962)" >_03_</text>
<text fill="#0044ee"  xml:space="preserve" font-size="10.1559" transform="translate(720.007, 346.636)" >_04_</text>
<text fill="#0044ee"  xml:space="preserve" font-size="10.1559" transform="translate(720.007, 370.309)" >_06_</text>
<text fill="#0044ee"  xml:space="preserve" font-size="10.1559" transform="translate(720.007, 393.983)" >_02_</text>
<text fill="#0044ee"  xml:space="preserve" font-size="10.1559" transform="translate(847.578, 358.473)" >net18</text>
<text fill="#0044ee"  xml:space="preserve" font-size="10.1559" transform="translate(722.007, 435.411)" >net9</text>
<text fill="#0044ee"  xml:space="preserve" font-size="10.1559" transform="translate(722.007, 459.084)" >net8</text>
<text fill="#0044ee"  xml:space="preserve" font-size="10.1559" transform="translate(720.007, 482.758)" >_05_</text>
<text fill="#0044ee"  xml:space="preserve" font-size="10.1559" transform="translate(847.578, 459.084)" >_07_</text>
<text fill="#0044ee"  xml:space="preserve" font-size="10.1559" transform="translate(716.007, 524.186)" >net13</text>
<text fill="#0044ee"  xml:space="preserve" font-size="10.1559" transform="translate(716.007, 547.859)" >net12</text>
<text fill="#0044ee"  xml:space="preserve" font-size="10.1559" transform="translate(720.007, 571.533)" >_07_</text>
<text fill="#0044ee"  xml:space="preserve" font-size="10.1559" transform="translate(720.007, 595.206)" >_04_</text>
<text fill="#0044ee"  xml:space="preserve" font-size="10.1559" transform="translate(847.578, 559.696)" >_08_</text>
<text fill="#0044ee"  xml:space="preserve" font-size="10.1559" transform="translate(722.007, 630.716)" >net2</text>
<text fill="#0044ee"  xml:space="preserve" font-size="10.1559" transform="translate(722.007, 654.39)" >net3</text>
<text fill="#0044ee"  xml:space="preserve" font-size="10.1559" transform="translate(720.007, 678.063)" >_08_</text>
<text fill="#0044ee"  xml:space="preserve" font-size="10.1559" transform="translate(720.007, 701.736)" >_01_</text>
<text fill="#0044ee"  xml:space="preserve" font-size="10.1559" transform="translate(847.578, 666.226)" >_09_</text>
<text fill="#0044ee"  xml:space="preserve" font-size="10.1559" transform="translate(733.844, 743.165)" >net6</text>
<text fill="#0044ee"  xml:space="preserve" font-size="10.1559" transform="translate(733.844, 766.838)" >net7</text>
<text fill="#0044ee"  xml:space="preserve" font-size="10.1559" transform="translate(731.844, 790.511)" >_09_</text>
<text fill="#0044ee"  xml:space="preserve" font-size="10.1559" transform="translate(835.741, 766.838)" >net17</text>
<text fill="#0044ee"  xml:space="preserve" font-size="10.1559" transform="translate(720.007, 837.858)" >_00_</text>
<text fill="#0044ee"  xml:space="preserve" font-size="10.1559" transform="translate(722.007, 861.532)" >net1</text>
<text fill="#0044ee"  xml:space="preserve" font-size="10.1559" transform="translate(722.007, 885.205)" >net9</text>
<text fill="#0044ee"  xml:space="preserve" font-size="10.1559" transform="translate(847.578, 861.532)" >_10_</text>
<text fill="#0044ee"  xml:space="preserve" font-size="10.1559" transform="translate(875.802, 27.0454)" >net10</text>
<text fill="#0044ee"  xml:space="preserve" font-size="10.1559" transform="translate(879.802, 50.7188)" >_10_</text>
<text fill="#0044ee"  xml:space="preserve" font-size="10.1559" transform="translate(875.802, 74.3921)" >net11</text>
<text fill="#0044ee"  xml:space="preserve" font-size="10.1559" transform="translate(1007.37, 50.7188)" >_11_</text>
<text fill="#0044ee"  xml:space="preserve" font-size="10.1559" transform="translate(875.802, 121.739)" >net12</text>
<text fill="#0044ee"  xml:space="preserve" font-size="10.1559" transform="translate(879.802, 145.412)" >_11_</text>
<text fill="#0044ee"  xml:space="preserve" font-size="10.1559" transform="translate(875.802, 169.086)" >net13</text>
<text fill="#0044ee"  xml:space="preserve" font-size="10.1559" transform="translate(1007.37, 145.412)" >_12_</text>
<text fill="#0044ee"  xml:space="preserve" font-size="10.1559" transform="translate(875.802, 216.432)" >net14</text>
<text fill="#0044ee"  xml:space="preserve" font-size="10.1559" transform="translate(879.802, 240.106)" >_12_</text>
<text fill="#0044ee"  xml:space="preserve" font-size="10.1559" transform="translate(875.802, 263.779)" >net15</text>
<text fill="#0044ee"  xml:space="preserve" font-size="10.1559" transform="translate(1007.37, 240.106)" >_13_</text>
<text fill="#0044ee"  xml:space="preserve" font-size="10.1559" transform="translate(881.802, 311.126)" >net2</text>
<text fill="#0044ee"  xml:space="preserve" font-size="10.1559" transform="translate(879.802, 334.799)" >_13_</text>
<text fill="#0044ee"  xml:space="preserve" font-size="10.1559" transform="translate(881.802, 358.473)" >net3</text>
<text fill="#0044ee"  xml:space="preserve" font-size="10.1559" transform="translate(1007.37, 334.799)" >_14_</text>
<text fill="#0044ee"  xml:space="preserve" font-size="10.1559" transform="translate(881.802, 405.819)" >net4</text>
<text fill="#0044ee"  xml:space="preserve" font-size="10.1559" transform="translate(879.802, 429.493)" >_14_</text>
<text fill="#0044ee"  xml:space="preserve" font-size="10.1559" transform="translate(881.802, 453.166)" >net5</text>
<text fill="#0044ee"  xml:space="preserve" font-size="10.1559" transform="translate(1007.37, 429.493)" >_15_</text>
<text fill="#0044ee"  xml:space="preserve" font-size="10.1559" transform="translate(881.802, 500.513)" >net6</text>
<text fill="#0044ee"  xml:space="preserve" font-size="10.1559" transform="translate(879.802, 524.186)" >_15_</text>
<text fill="#0044ee"  xml:space="preserve" font-size="10.1559" transform="translate(881.802, 547.859)" >net7</text>
<text fill="#0044ee"  xml:space="preserve" font-size="10.1559" transform="translate(1007.37, 524.186)" >net16</text>
<text fill="#0044ee"  xml:space="preserve" font-size="10.1559" transform="translate(912.476, 607.043)" >in1</text>
<text fill="#0044ee"  xml:space="preserve" font-size="10.1559" transform="translate(983.7, 607.043)" >net1</text>
<text fill="#0044ee"  xml:space="preserve" font-size="10.1559" transform="translate(912.476, 678.063)" >in4</text>
<text fill="#0044ee"  xml:space="preserve" font-size="10.1559" transform="translate(983.7, 678.063)" >net10</text>
<text fill="#0044ee"  xml:space="preserve" font-size="10.1559" transform="translate(912.476, 749.083)" >in5</text>
<text fill="#0044ee"  xml:space="preserve" font-size="10.1559" transform="translate(983.7, 749.083)" >net11</text>
<text fill="#0044ee"  xml:space="preserve" font-size="10.1559" transform="translate(912.476, 820.103)" >in6</text>
<text fill="#0044ee"  xml:space="preserve" font-size="10.1559" transform="translate(983.7, 820.103)" >net12</text>
<text fill="#0044ee"  xml:space="preserve" font-size="10.1559" transform="translate(912.476, 891.123)" >in7</text>
<text fill="#0044ee"  xml:space="preserve" font-size="10.1559" transform="translate(983.7, 891.123)" >net13</text>
<text fill="#0044ee"  xml:space="preserve" font-size="10.1559" transform="translate(1048.6, 38.8821)" >in8</text>
<text fill="#0044ee"  xml:space="preserve" font-size="10.1559" transform="translate(1119.82, 38.8821)" >net14</text>
<text fill="#0044ee"  xml:space="preserve" font-size="10.1559" transform="translate(1048.6, 109.902)" >in9</text>
<text fill="#0044ee"  xml:space="preserve" font-size="10.1559" transform="translate(1119.82, 109.902)" >net15</text>
<text fill="#0044ee"  xml:space="preserve" font-size="10.1559" transform="translate(1042.6, 180.922)" >in10</text>
<text fill="#0044ee"  xml:space="preserve" font-size="10.1559" transform="translate(1119.82, 180.922)" >net2</text>
<text fill="#0044ee"  xml:space="preserve" font-size="10.1559" transform="translate(1042.6, 251.942)" >in11</text>
<text fill="#0044ee"  xml:space="preserve" font-size="10.1559" transform="translate(1119.82, 251.942)" >net3</text>
<text fill="#0044ee"  xml:space="preserve" font-size="10.1559" transform="translate(1042.6, 322.962)" >in12</text>
<text fill="#0044ee"  xml:space="preserve" font-size="10.1559" transform="translate(1119.82, 322.962)" >net4</text>
<text fill="#0044ee"  xml:space="preserve" font-size="10.1559" transform="translate(1042.6, 393.983)" >in13</text>
<text fill="#0044ee"  xml:space="preserve" font-size="10.1559" transform="translate(1119.82, 393.983)" >net5</text>
<text fill="#0044ee"  xml:space="preserve" font-size="10.1559" transform="translate(1042.6, 465.003)" >in14</text>
<text fill="#0044ee"  xml:space="preserve" font-size="10.1559" transform="translate(1119.82, 465.003)" >net6</text>
<text fill="#0044ee"  xml:space="preserve" font-size="10.1559" transform="translate(1042.6, 536.023)" >in15</text>
<text fill="#0044ee"  xml:space="preserve" font-size="10.1559" transform="translate(1119.82, 536.023)" >net7</text>
<text fill="#0044ee"  xml:space="preserve" font-size="10.1559" transform="translate(1048.6, 607.043)" >in2</text>
<text fill="#0044ee"  xml:space="preserve" font-size="10.1559" transform="translate(1119.82, 607.043)" >net8</text>
<text fill="#0044ee"  xml:space="preserve" font-size="10.1559" transform="translate(1048.6, 678.063)" >in3</text>
<text fill="#0044ee"  xml:space="preserve" font-size="10.1559" transform="translate(1119.82, 678.063)" >net9</text>
<text fill="#0044ee"  xml:space="preserve" font-size="10.1559" transform="translate(1035.6, 749.083)" >net16</text>
<text fill="#0044ee"  xml:space="preserve" font-size="10.1559" transform="translate(1119.82, 749.083)" >out0</text>
<text fill="#0044ee"  xml:space="preserve" font-size="10.1559" transform="translate(1035.6, 820.103)" >net17</text>
<text fill="#0044ee"  xml:space="preserve" font-size="10.1559" transform="translate(1119.82, 820.103)" >out1</text>
<text fill="#0044ee"  xml:space="preserve" font-size="10.1559" transform="translate(1035.6, 891.123)" >net18</text>
<text fill="#0044ee"  xml:space="preserve" font-size="10.1559" transform="translate(1119.82, 891.123)" >out2</text>
<text fill="#0044ee"  xml:space="preserve" font-size="10.1559" transform="translate(1171.72, 38.8821)" >net19</text>
<text fill="#0044ee"  xml:space="preserve" font-size="10.1559" transform="translate(1255.94, 38.8821)" >out3</text>
<text fill="#222222"  xml:space="preserve" font-size="6.15508" transform="translate(627.12, 256.669)" >A</text>
<text fill="#222222"  xml:space="preserve" font-size="6.15508" transform="translate(663.548, 256.669)" >Y</text>
<text fill="#222222"  xml:space="preserve" font-size="6.15508" transform="translate(649.313, 273.832)" >X_16_</text>
<text fill="#222222"  xml:space="preserve" font-size="6.15508" transform="translate(643.395, 250.159)" >inv_2</text>
<text fill="#222222"  xml:space="preserve" font-size="6.15508" transform="translate(615.283, 321.771)" >A</text>
<text fill="#222222"  xml:space="preserve" font-size="6.15508" transform="translate(615.283, 345.444)" >B</text>
<text fill="#222222"  xml:space="preserve" font-size="6.15508" transform="translate(675.385, 333.608)" >Y</text>
<text fill="#222222"  xml:space="preserve" font-size="6.15508" transform="translate(638.217, 338.934)" >X_17_</text>
<text fill="#222222"  xml:space="preserve" font-size="6.15508" transform="translate(633.038, 315.261)" >nor2_1</text>
<text fill="#222222"  xml:space="preserve" font-size="6.15508" transform="translate(675.385, 428.301)" >X</text>
<text fill="#222222"  xml:space="preserve" font-size="6.15508" transform="translate(638.217, 433.628)" >X_18_</text>
<text fill="#222222"  xml:space="preserve" font-size="6.15508" transform="translate(633.038, 409.954)" >or4_1</text>
<text fill="#222222"  xml:space="preserve" font-size="6.15508" transform="translate(615.283, 392.791)" >A</text>
<text fill="#222222"  xml:space="preserve" font-size="6.15508" transform="translate(615.283, 416.465)" >B</text>
<text fill="#222222"  xml:space="preserve" font-size="6.15508" transform="translate(615.283, 440.138)" >C</text>
<text fill="#222222"  xml:space="preserve" font-size="6.15508" transform="translate(615.283, 463.811)" >D</text>
<text fill="#222222"  xml:space="preserve" font-size="6.15508" transform="translate(615.283, 511.158)" >A</text>
<text fill="#222222"  xml:space="preserve" font-size="6.15508" transform="translate(615.283, 534.831)" >B</text>
<text fill="#222222"  xml:space="preserve" font-size="6.15508" transform="translate(675.385, 522.995)" >Y</text>
<text fill="#222222"  xml:space="preserve" font-size="6.15508" transform="translate(638.217, 528.321)" >X_19_</text>
<text fill="#222222"  xml:space="preserve" font-size="6.15508" transform="translate(633.038, 504.648)" >nor2_1</text>
<text fill="#222222"  xml:space="preserve" font-size="6.15508" transform="translate(615.283, 594.015)" >A</text>
<text fill="#222222"  xml:space="preserve" font-size="6.15508" transform="translate(615.283, 617.688)" >B</text>
<text fill="#222222"  xml:space="preserve" font-size="6.15508" transform="translate(675.385, 605.851)" >Y</text>
<text fill="#222222"  xml:space="preserve" font-size="6.15508" transform="translate(638.217, 611.178)" >X_20_</text>
<text fill="#222222"  xml:space="preserve" font-size="6.15508" transform="translate(633.038, 587.505)" >nor2_1</text>
<text fill="#222222"  xml:space="preserve" font-size="6.15508" transform="translate(823.343, 55.4457)" >X</text>
<text fill="#222222"  xml:space="preserve" font-size="6.15508" transform="translate(786.175, 60.7722)" >X_21_</text>
<text fill="#222222"  xml:space="preserve" font-size="6.15508" transform="translate(780.997, 37.0988)" >or4b_2</text>
<text fill="#222222"  xml:space="preserve" font-size="6.15508" transform="translate(763.242, 19.9356)" >A</text>
<text fill="#222222"  xml:space="preserve" font-size="6.15508" transform="translate(763.242, 43.609)" >B</text>
<text fill="#222222"  xml:space="preserve" font-size="6.15508" transform="translate(763.242, 67.2824)" >C</text>
<text fill="#222222"  xml:space="preserve" font-size="6.15508" transform="translate(763.242, 90.9557)" >D_N</text>
<text fill="#222222"  xml:space="preserve" font-size="6.15508" transform="translate(763.242, 138.302)" >A</text>
<text fill="#222222"  xml:space="preserve" font-size="6.15508" transform="translate(763.242, 161.976)" >B</text>
<text fill="#222222"  xml:space="preserve" font-size="6.15508" transform="translate(823.343, 150.139)" >Y</text>
<text fill="#222222"  xml:space="preserve" font-size="6.15508" transform="translate(786.175, 155.466)" >X_22_</text>
<text fill="#222222"  xml:space="preserve" font-size="6.15508" transform="translate(780.997, 131.792)" >nor2_1</text>
<text fill="#222222"  xml:space="preserve" font-size="6.15508" transform="translate(823.343, 244.833)" >X</text>
<text fill="#222222"  xml:space="preserve" font-size="6.15508" transform="translate(786.175, 250.159)" >X_23_</text>
<text fill="#222222"  xml:space="preserve" font-size="6.15508" transform="translate(780.997, 226.486)" >or4_1</text>
<text fill="#222222"  xml:space="preserve" font-size="6.15508" transform="translate(763.242, 209.323)" >A</text>
<text fill="#222222"  xml:space="preserve" font-size="6.15508" transform="translate(763.242, 232.996)" >B</text>
<text fill="#222222"  xml:space="preserve" font-size="6.15508" transform="translate(763.242, 256.669)" >C</text>
<text fill="#222222"  xml:space="preserve" font-size="6.15508" transform="translate(763.242, 280.343)" >D</text>
<text fill="#222222"  xml:space="preserve" font-size="6.15508" transform="translate(751.405, 315.853)" >A1</text>
<text fill="#222222"  xml:space="preserve" font-size="6.15508" transform="translate(751.405, 339.526)" >A2</text>
<text fill="#222222"  xml:space="preserve" font-size="6.15508" transform="translate(751.405, 386.873)" >B1</text>
<text fill="#222222"  xml:space="preserve" font-size="6.15508" transform="translate(832.221, 351.363)" >X</text>
<text fill="#222222"  xml:space="preserve" font-size="6.15508" transform="translate(799.491, 333.016)" >X_24_</text>
<text fill="#222222"  xml:space="preserve" font-size="6.15508" transform="translate(789.134, 321.179)" >a31o_1</text>
<text fill="#222222"  xml:space="preserve" font-size="6.15508" transform="translate(751.405, 363.199)" >A3</text>
<text fill="#222222"  xml:space="preserve" font-size="6.15508" transform="translate(751.405, 428.301)" >A1</text>
<text fill="#222222"  xml:space="preserve" font-size="6.15508" transform="translate(751.405, 451.975)" >A2</text>
<text fill="#222222"  xml:space="preserve" font-size="6.15508" transform="translate(751.405, 475.648)" >B1</text>
<text fill="#222222"  xml:space="preserve" font-size="6.15508" transform="translate(835.18, 451.975)" >X</text>
<text fill="#222222"  xml:space="preserve" font-size="6.15508" transform="translate(804.67, 457.301)" >X_25_</text>
<text fill="#222222"  xml:space="preserve" font-size="6.15508" transform="translate(789.134, 427.709)" >o21a_1</text>
<text fill="#222222"  xml:space="preserve" font-size="6.15508" transform="translate(751.405, 517.076)" >A1</text>
<text fill="#222222"  xml:space="preserve" font-size="6.15508" transform="translate(751.405, 540.75)" >A2</text>
<text fill="#222222"  xml:space="preserve" font-size="6.15508" transform="translate(751.405, 588.096)" >B1</text>
<text fill="#222222"  xml:space="preserve" font-size="6.15508" transform="translate(835.18, 552.586)" >X</text>
<text fill="#222222"  xml:space="preserve" font-size="6.15508" transform="translate(804.67, 557.913)" >X_26_</text>
<text fill="#222222"  xml:space="preserve" font-size="6.15508" transform="translate(789.134, 528.321)" >o31a_1</text>
<text fill="#222222"  xml:space="preserve" font-size="6.15508" transform="translate(751.405, 564.423)" >A3</text>
<text fill="#222222"  xml:space="preserve" font-size="6.15508" transform="translate(751.405, 623.606)" >A1</text>
<text fill="#222222"  xml:space="preserve" font-size="6.15508" transform="translate(751.405, 647.28)" >A2</text>
<text fill="#222222"  xml:space="preserve" font-size="6.15508" transform="translate(751.405, 694.627)" >B1</text>
<text fill="#222222"  xml:space="preserve" font-size="6.15508" transform="translate(835.18, 659.117)" >X</text>
<text fill="#222222"  xml:space="preserve" font-size="6.15508" transform="translate(804.67, 664.443)" >X_27_</text>
<text fill="#222222"  xml:space="preserve" font-size="6.15508" transform="translate(789.134, 634.851)" >o31a_1</text>
<text fill="#222222"  xml:space="preserve" font-size="6.15508" transform="translate(751.405, 670.953)" >A3</text>
<text fill="#222222"  xml:space="preserve" font-size="6.15508" transform="translate(763.242, 736.055)" >A</text>
<text fill="#222222"  xml:space="preserve" font-size="6.15508" transform="translate(763.242, 759.728)" >B</text>
<text fill="#222222"  xml:space="preserve" font-size="6.15508" transform="translate(823.343, 759.728)" >X</text>
<text fill="#222222"  xml:space="preserve" font-size="6.15508" transform="translate(780.997, 741.381)" >or3_1</text>
<text fill="#222222"  xml:space="preserve" font-size="6.15508" transform="translate(786.175, 765.055)" >X_28_</text>
<text fill="#222222"  xml:space="preserve" font-size="6.15508" transform="translate(763.242, 783.402)" >C</text>
<text fill="#222222"  xml:space="preserve" font-size="6.15508" transform="translate(751.405, 830.748)" >A1</text>
<text fill="#222222"  xml:space="preserve" font-size="6.15508" transform="translate(751.405, 854.422)" >A2</text>
<text fill="#222222"  xml:space="preserve" font-size="6.15508" transform="translate(751.405, 878.095)" >B1</text>
<text fill="#222222"  xml:space="preserve" font-size="6.15508" transform="translate(835.18, 854.422)" >Y</text>
<text fill="#222222"  xml:space="preserve" font-size="6.15508" transform="translate(817.246, 841.993)" >X_29_</text>
<text fill="#222222"  xml:space="preserve" font-size="6.15508" transform="translate(789.134, 833.116)" >a21oi_1</text>
<text fill="#222222"  xml:space="preserve" font-size="6.15508" transform="translate(994.975, 43.609)" >X</text>
<text fill="#222222"  xml:space="preserve" font-size="6.15508" transform="translate(911.2, 19.9356)" >A1</text>
<text fill="#222222"  xml:space="preserve" font-size="6.15508" transform="translate(911.2, 43.609)" >A2</text>
<text fill="#222222"  xml:space="preserve" font-size="6.15508" transform="translate(911.2, 67.2824)" >B1_N</text>
<text fill="#222222"  xml:space="preserve" font-size="6.15508" transform="translate(964.465, 48.9355)" >X_30_</text>
<text fill="#222222"  xml:space="preserve" font-size="6.15508" transform="translate(948.93, 19.3438)" >o21ba_1</text>
<text fill="#222222"  xml:space="preserve" font-size="6.15508" transform="translate(994.975, 138.302)" >X</text>
<text fill="#222222"  xml:space="preserve" font-size="6.15508" transform="translate(911.2, 114.629)" >A1</text>
<text fill="#222222"  xml:space="preserve" font-size="6.15508" transform="translate(911.2, 138.302)" >A2</text>
<text fill="#222222"  xml:space="preserve" font-size="6.15508" transform="translate(911.2, 161.976)" >B1_N</text>
<text fill="#222222"  xml:space="preserve" font-size="6.15508" transform="translate(964.465, 143.629)" >X_31_</text>
<text fill="#222222"  xml:space="preserve" font-size="6.15508" transform="translate(948.93, 114.037)" >o21ba_1</text>
<text fill="#222222"  xml:space="preserve" font-size="6.15508" transform="translate(994.975, 232.996)" >X</text>
<text fill="#222222"  xml:space="preserve" font-size="6.15508" transform="translate(911.2, 209.323)" >A1</text>
<text fill="#222222"  xml:space="preserve" font-size="6.15508" transform="translate(911.2, 232.996)" >A2</text>
<text fill="#222222"  xml:space="preserve" font-size="6.15508" transform="translate(911.2, 256.669)" >B1_N</text>
<text fill="#222222"  xml:space="preserve" font-size="6.15508" transform="translate(964.465, 238.322)" >X_32_</text>
<text fill="#222222"  xml:space="preserve" font-size="6.15508" transform="translate(948.93, 208.731)" >o21ba_1</text>
<text fill="#222222"  xml:space="preserve" font-size="6.15508" transform="translate(994.975, 327.689)" >X</text>
<text fill="#222222"  xml:space="preserve" font-size="6.15508" transform="translate(911.2, 304.016)" >A1</text>
<text fill="#222222"  xml:space="preserve" font-size="6.15508" transform="translate(911.2, 327.689)" >A2</text>
<text fill="#222222"  xml:space="preserve" font-size="6.15508" transform="translate(911.2, 351.363)" >B1_N</text>
<text fill="#222222"  xml:space="preserve" font-size="6.15508" transform="translate(964.465, 333.016)" >X_33_</text>
<text fill="#222222"  xml:space="preserve" font-size="6.15508" transform="translate(948.93, 303.424)" >o21ba_1</text>
<text fill="#222222"  xml:space="preserve" font-size="6.15508" transform="translate(994.975, 422.383)" >X</text>
<text fill="#222222"  xml:space="preserve" font-size="6.15508" transform="translate(911.2, 398.709)" >A1</text>
<text fill="#222222"  xml:space="preserve" font-size="6.15508" transform="translate(911.2, 422.383)" >A2</text>
<text fill="#222222"  xml:space="preserve" font-size="6.15508" transform="translate(911.2, 446.056)" >B1_N</text>
<text fill="#222222"  xml:space="preserve" font-size="6.15508" transform="translate(964.465, 427.709)" >X_34_</text>
<text fill="#222222"  xml:space="preserve" font-size="6.15508" transform="translate(948.93, 398.118)" >o21ba_1</text>
<text fill="#222222"  xml:space="preserve" font-size="6.15508" transform="translate(994.975, 517.076)" >Y</text>
<text fill="#222222"  xml:space="preserve" font-size="6.15508" transform="translate(911.2, 493.403)" >A1</text>
<text fill="#222222"  xml:space="preserve" font-size="6.15508" transform="translate(911.2, 517.076)" >A2</text>
<text fill="#222222"  xml:space="preserve" font-size="6.15508" transform="translate(911.2, 540.75)" >B1_N</text>
<text fill="#222222"  xml:space="preserve" font-size="6.15508" transform="translate(964.465, 522.403)" >X_35_</text>
<text fill="#222222"  xml:space="preserve" font-size="6.15508" transform="translate(948.93, 492.811)" >o21bai_2</text>
<text fill="#222222"  xml:space="preserve" font-size="6.15508" transform="translate(934.873, 599.933)" >A</text>
<text fill="#222222"  xml:space="preserve" font-size="6.15508" transform="translate(971.302, 599.933)" >X</text>
<text fill="#222222"  xml:space="preserve" font-size="6.15508" transform="translate(957.067, 617.096)" >Xinput1</text>
<text fill="#222222"  xml:space="preserve" font-size="6.15508" transform="translate(951.149, 593.423)" >clkbuf_1</text>
<text fill="#222222"  xml:space="preserve" font-size="6.15508" transform="translate(934.873, 670.953)" >A</text>
<text fill="#222222"  xml:space="preserve" font-size="6.15508" transform="translate(971.302, 670.953)" >X</text>
<text fill="#222222"  xml:space="preserve" font-size="6.15508" transform="translate(957.067, 688.116)" >Xinput10</text>
<text fill="#222222"  xml:space="preserve" font-size="6.15508" transform="translate(951.149, 664.443)" >buf_1</text>
<text fill="#222222"  xml:space="preserve" font-size="6.15508" transform="translate(934.873, 741.973)" >A</text>
<text fill="#222222"  xml:space="preserve" font-size="6.15508" transform="translate(971.302, 741.973)" >X</text>
<text fill="#222222"  xml:space="preserve" font-size="6.15508" transform="translate(957.067, 759.136)" >Xinput11</text>
<text fill="#222222"  xml:space="preserve" font-size="6.15508" transform="translate(951.149, 735.463)" >buf_1</text>
<text fill="#222222"  xml:space="preserve" font-size="6.15508" transform="translate(934.873, 812.993)" >A</text>
<text fill="#222222"  xml:space="preserve" font-size="6.15508" transform="translate(971.302, 812.993)" >X</text>
<text fill="#222222"  xml:space="preserve" font-size="6.15508" transform="translate(957.067, 830.157)" >Xinput12</text>
<text fill="#222222"  xml:space="preserve" font-size="6.15508" transform="translate(951.149, 806.483)" >buf_1</text>
<text fill="#222222"  xml:space="preserve" font-size="6.15508" transform="translate(934.873, 884.013)" >A</text>
<text fill="#222222"  xml:space="preserve" font-size="6.15508" transform="translate(971.302, 884.013)" >X</text>
<text fill="#222222"  xml:space="preserve" font-size="6.15508" transform="translate(957.067, 901.177)" >Xinput13</text>
<text fill="#222222"  xml:space="preserve" font-size="6.15508" transform="translate(951.149, 877.503)" >clkbuf_1</text>
<text fill="#222222"  xml:space="preserve" font-size="6.15508" transform="translate(1071, 31.7723)" >A</text>
<text fill="#222222"  xml:space="preserve" font-size="6.15508" transform="translate(1107.42, 31.7723)" >X</text>
<text fill="#222222"  xml:space="preserve" font-size="6.15508" transform="translate(1093.19, 48.9355)" >Xinput14</text>
<text fill="#222222"  xml:space="preserve" font-size="6.15508" transform="translate(1087.27, 25.2621)" >buf_1</text>
<text fill="#222222"  xml:space="preserve" font-size="6.15508" transform="translate(1071, 102.792)" >A</text>
<text fill="#222222"  xml:space="preserve" font-size="6.15508" transform="translate(1107.42, 102.792)" >X</text>
<text fill="#222222"  xml:space="preserve" font-size="6.15508" transform="translate(1093.19, 119.956)" >Xinput15</text>
<text fill="#222222"  xml:space="preserve" font-size="6.15508" transform="translate(1087.27, 96.2822)" >buf_1</text>
<text fill="#222222"  xml:space="preserve" font-size="6.15508" transform="translate(1071, 173.813)" >A</text>
<text fill="#222222"  xml:space="preserve" font-size="6.15508" transform="translate(1107.42, 173.813)" >X</text>
<text fill="#222222"  xml:space="preserve" font-size="6.15508" transform="translate(1093.19, 190.976)" >Xinput2</text>
<text fill="#222222"  xml:space="preserve" font-size="6.15508" transform="translate(1087.27, 167.302)" >buf_1</text>
<text fill="#222222"  xml:space="preserve" font-size="6.15508" transform="translate(1071, 244.833)" >A</text>
<text fill="#222222"  xml:space="preserve" font-size="6.15508" transform="translate(1107.42, 244.833)" >X</text>
<text fill="#222222"  xml:space="preserve" font-size="6.15508" transform="translate(1093.19, 261.996)" >Xinput3</text>
<text fill="#222222"  xml:space="preserve" font-size="6.15508" transform="translate(1087.27, 238.322)" >buf_1</text>
<text fill="#222222"  xml:space="preserve" font-size="6.15508" transform="translate(1071, 315.853)" >A</text>
<text fill="#222222"  xml:space="preserve" font-size="6.15508" transform="translate(1107.42, 315.853)" >X</text>
<text fill="#222222"  xml:space="preserve" font-size="6.15508" transform="translate(1093.19, 333.016)" >Xinput4</text>
<text fill="#222222"  xml:space="preserve" font-size="6.15508" transform="translate(1087.27, 309.343)" >buf_1</text>
<text fill="#222222"  xml:space="preserve" font-size="6.15508" transform="translate(1071, 386.873)" >A</text>
<text fill="#222222"  xml:space="preserve" font-size="6.15508" transform="translate(1107.42, 386.873)" >X</text>
<text fill="#222222"  xml:space="preserve" font-size="6.15508" transform="translate(1093.19, 404.036)" >Xinput5</text>
<text fill="#222222"  xml:space="preserve" font-size="6.15508" transform="translate(1087.27, 380.363)" >buf_1</text>
<text fill="#222222"  xml:space="preserve" font-size="6.15508" transform="translate(1071, 457.893)" >A</text>
<text fill="#222222"  xml:space="preserve" font-size="6.15508" transform="translate(1107.42, 457.893)" >X</text>
<text fill="#222222"  xml:space="preserve" font-size="6.15508" transform="translate(1093.19, 475.056)" >Xinput6</text>
<text fill="#222222"  xml:space="preserve" font-size="6.15508" transform="translate(1087.27, 451.383)" >buf_1</text>
<text fill="#222222"  xml:space="preserve" font-size="6.15508" transform="translate(1071, 528.913)" >A</text>
<text fill="#222222"  xml:space="preserve" font-size="6.15508" transform="translate(1107.42, 528.913)" >X</text>
<text fill="#222222"  xml:space="preserve" font-size="6.15508" transform="translate(1093.19, 546.076)" >Xinput7</text>
<text fill="#222222"  xml:space="preserve" font-size="6.15508" transform="translate(1087.27, 522.403)" >buf_1</text>
<text fill="#222222"  xml:space="preserve" font-size="6.15508" transform="translate(1071, 599.933)" >A</text>
<text fill="#222222"  xml:space="preserve" font-size="6.15508" transform="translate(1107.42, 599.933)" >X</text>
<text fill="#222222"  xml:space="preserve" font-size="6.15508" transform="translate(1093.19, 617.096)" >Xinput8</text>
<text fill="#222222"  xml:space="preserve" font-size="6.15508" transform="translate(1087.27, 593.423)" >buf_1</text>
<text fill="#222222"  xml:space="preserve" font-size="6.15508" transform="translate(1071, 670.953)" >A</text>
<text fill="#222222"  xml:space="preserve" font-size="6.15508" transform="translate(1107.42, 670.953)" >X</text>
<text fill="#222222"  xml:space="preserve" font-size="6.15508" transform="translate(1093.19, 688.116)" >Xinput9</text>
<text fill="#222222"  xml:space="preserve" font-size="6.15508" transform="translate(1087.27, 664.443)" >buf_1</text>
<text fill="#222222"  xml:space="preserve" font-size="6.15508" transform="translate(1071, 741.973)" >A</text>
<text fill="#222222"  xml:space="preserve" font-size="6.15508" transform="translate(1107.42, 741.973)" >X</text>
<text fill="#222222"  xml:space="preserve" font-size="6.15508" transform="translate(1093.19, 759.136)" >Xoutput16</text>
<text fill="#222222"  xml:space="preserve" font-size="6.15508" transform="translate(1087.27, 735.463)" >buf_12</text>
<text fill="#222222"  xml:space="preserve" font-size="6.15508" transform="translate(1071, 812.993)" >A</text>
<text fill="#222222"  xml:space="preserve" font-size="6.15508" transform="translate(1107.42, 812.993)" >X</text>
<text fill="#222222"  xml:space="preserve" font-size="6.15508" transform="translate(1093.19, 830.157)" >Xoutput17</text>
<text fill="#222222"  xml:space="preserve" font-size="6.15508" transform="translate(1087.27, 806.483)" >buf_12</text>
<text fill="#222222"  xml:space="preserve" font-size="6.15508" transform="translate(1071, 884.013)" >A</text>
<text fill="#222222"  xml:space="preserve" font-size="6.15508" transform="translate(1107.42, 884.013)" >X</text>
<text fill="#222222"  xml:space="preserve" font-size="6.15508" transform="translate(1093.19, 901.177)" >Xoutput18</text>
<text fill="#222222"  xml:space="preserve" font-size="6.15508" transform="translate(1087.27, 877.503)" >buf_12</text>
<text fill="#222222"  xml:space="preserve" font-size="6.15508" transform="translate(1207.12, 31.7723)" >A</text>
<text fill="#222222"  xml:space="preserve" font-size="6.15508" transform="translate(1243.55, 31.7723)" >X</text>
<text fill="#222222"  xml:space="preserve" font-size="6.15508" transform="translate(1229.31, 48.9355)" >Xoutput19</text>
<text fill="#222222"  xml:space="preserve" font-size="6.15508" transform="translate(1223.39, 25.2621)" >buf_12</text>
<path class="l4" d="M635.997 247.529L635.997 271.203"/>
<path class="l4" d="M635.997 247.529L659.671 259.366"/>
<path class="l4" d="M635.997 271.203L659.671 259.366"/>
<path class="l4" d="M665.589 259.366L671.507 259.366"/>
<path class="l4" d="M624.161 259.366L635.997 259.366"/>
<circle class="l4" cx="662.63" cy="259.366" r="2.95917" style="fill:none;"/>
<path class="l4" d="M612.324 324.468L633.038 324.468"/>
<path class="l4" d="M612.324 348.141L633.038 348.141"/>
<path class="l4" d="M674.466 336.305L683.344 336.305"/>
<path class="l4" d="M630.079 318.55L638.956 318.55"/>
<path class="l4" d="M630.079 354.06L638.956 354.06"/>
<circle class="l4" cx="671.507" cy="336.305" r="2.95917" style="fill:none;"/>
<path class="l4" style="fill:none;" d="M630.079 354.06 A33.2495 33.2495 0 0 0 630.079 318.55"/>
<path class="l4" style="fill:none;" d="M668.548 336.305 A39.6891 39.6891 0 0 0 638.956 318.55"/>
<path class="l4" style="fill:none;" d="M638.956 354.06 A39.6891 39.6891 0 0 0 668.548 336.305"/>
<path class="l4" d="M668.548 430.998L683.344 430.998"/>
<path class="l4" d="M630.079 413.243L638.956 413.243"/>
<path class="l4" d="M630.079 448.753L638.956 448.753"/>
<path class="l4" d="M612.324 395.488L624.161 395.488"/>
<path class="l4" d="M612.324 442.835L621.201 442.835"/>
<path class="l4" d="M621.201 436.916L621.201 442.835"/>
<path class="l4" d="M621.201 436.916L634.703 436.916"/>
<path class="l4" d="M624.161 395.488L624.161 416.202"/>
<path class="l4" d="M624.161 416.202L631.558 416.202"/>
<path class="l4" d="M612.324 419.161L621.201 419.161"/>
<path class="l4" d="M621.201 419.161L621.201 425.08"/>
<path class="l4" d="M621.201 425.08L634.703 425.08"/>
<path class="l4" d="M612.324 466.508L624.161 466.508"/>
<path class="l4" d="M624.161 445.794L624.161 466.508"/>
<path class="l4" d="M624.161 445.794L631.558 445.794"/>
<path class="l4" style="fill:none;" d="M630.079 448.753 A33.2495 33.2495 0 0 0 630.079 413.243"/>
<path class="l4" style="fill:none;" d="M668.548 430.998 A39.6891 39.6891 0 0 0 638.956 413.243"/>
<path class="l4" style="fill:none;" d="M638.956 448.753 A39.6891 39.6891 0 0 0 668.548 430.998"/>
<path class="l4" d="M612.324 513.855L633.038 513.855"/>
<path class="l4" d="M612.324 537.528L633.038 537.528"/>
<path class="l4" d="M674.466 525.692L683.344 525.692"/>
<path class="l4" d="M630.079 507.937L638.956 507.937"/>
<path class="l4" d="M630.079 543.447L638.956 543.447"/>
<circle class="l4" cx="671.507" cy="525.692" r="2.95917" style="fill:none;"/>
<path class="l4" style="fill:none;" d="M630.079 543.447 A33.2495 33.2495 0 0 0 630.079 507.937"/>
<path class="l4" style="fill:none;" d="M668.548 525.692 A39.6891 39.6891 0 0 0 638.956 507.937"/>
<path class="l4" style="fill:none;" d="M638.956 543.447 A39.6891 39.6891 0 0 0 668.548 525.692"/>
<path class="l4" d="M612.324 596.712L633.038 596.712"/>
<path class="l4" d="M612.324 620.385L633.038 620.385"/>
<path class="l4" d="M674.466 608.548L683.344 608.548"/>
<path class="l4" d="M630.079 590.793L638.956 590.793"/>
<path class="l4" d="M630.079 626.303L638.956 626.303"/>
<circle class="l4" cx="671.507" cy="608.548" r="2.95917" style="fill:none;"/>
<path class="l4" style="fill:none;" d="M630.079 626.303 A33.2495 33.2495 0 0 0 630.079 590.793"/>
<path class="l4" style="fill:none;" d="M668.548 608.548 A39.6891 39.6891 0 0 0 638.956 590.793"/>
<path class="l4" style="fill:none;" d="M638.956 626.303 A39.6891 39.6891 0 0 0 668.548 608.548"/>
<path class="l4" d="M816.507 58.1426L831.302 58.1426"/>
<path class="l4" d="M778.037 40.3875L786.915 40.3875"/>
<path class="l4" d="M778.037 75.8976L786.915 75.8976"/>
<path class="l4" d="M760.282 22.6325L772.119 22.6325"/>
<path class="l4" d="M760.282 69.9792L769.16 69.9792"/>
<path class="l4" d="M769.16 64.0609L769.16 69.9792"/>
<path class="l4" d="M769.16 64.0609L782.661 64.0609"/>
<path class="l4" d="M772.119 22.6325L772.119 43.3467"/>
<path class="l4" d="M772.119 43.3467L779.517 43.3467"/>
<path class="l4" d="M760.282 46.3059L769.16 46.3059"/>
<path class="l4" d="M769.16 46.3059L769.16 52.2242"/>
<path class="l4" d="M769.16 52.2242L782.661 52.2242"/>
<path class="l4" d="M760.282 93.6526L772.119 93.6526"/>
<path class="l4" d="M772.119 72.9384L772.119 93.6526"/>
<path class="l4" d="M772.119 72.9384L773.414 72.9384"/>
<path class="l4" style="fill:none;" d="M778.037 75.8976 A33.2495 33.2495 0 0 0 778.037 40.3875"/>
<path class="l4" style="fill:none;" d="M816.507 58.1426 A39.6891 39.6891 0 0 0 786.915 40.3875"/>
<path class="l4" style="fill:none;" d="M786.915 75.8976 A39.6891 39.6891 0 0 0 816.507 58.1426"/>
<circle class="l4" cx="776.373" cy="72.9384" r="2.95917" style="fill:none;"/>
<path class="l4" d="M760.282 140.999L780.997 140.999"/>
<path class="l4" d="M760.282 164.673L780.997 164.673"/>
<path class="l4" d="M822.425 152.836L831.302 152.836"/>
<path class="l4" d="M778.037 135.081L786.915 135.081"/>
<path class="l4" d="M778.037 170.591L786.915 170.591"/>
<circle class="l4" cx="819.466" cy="152.836" r="2.95917" style="fill:none;"/>
<path class="l4" style="fill:none;" d="M778.037 170.591 A33.2495 33.2495 0 0 0 778.037 135.081"/>
<path class="l4" style="fill:none;" d="M816.507 152.836 A39.6891 39.6891 0 0 0 786.915 135.081"/>
<path class="l4" style="fill:none;" d="M786.915 170.591 A39.6891 39.6891 0 0 0 816.507 152.836"/>
<path class="l4" d="M816.507 247.529L831.302 247.529"/>
<path class="l4" d="M778.037 229.774L786.915 229.774"/>
<path class="l4" d="M778.037 265.285L786.915 265.285"/>
<path class="l4" d="M760.282 212.019L772.119 212.019"/>
<path class="l4" d="M760.282 259.366L769.16 259.366"/>
<path class="l4" d="M769.16 253.448L769.16 259.366"/>
<path class="l4" d="M769.16 253.448L782.661 253.448"/>
<path class="l4" d="M772.119 212.019L772.119 232.734"/>
<path class="l4" d="M772.119 232.734L779.517 232.734"/>
<path class="l4" d="M760.282 235.693L769.16 235.693"/>
<path class="l4" d="M769.16 235.693L769.16 241.611"/>
<path class="l4" d="M769.16 241.611L782.661 241.611"/>
<path class="l4" d="M760.282 283.04L772.119 283.04"/>
<path class="l4" d="M772.119 262.325L772.119 283.04"/>
<path class="l4" d="M772.119 262.325L779.517 262.325"/>
<path class="l4" style="fill:none;" d="M778.037 265.285 A33.2495 33.2495 0 0 0 778.037 229.774"/>
<path class="l4" style="fill:none;" d="M816.507 247.529 A39.6891 39.6891 0 0 0 786.915 229.774"/>
<path class="l4" style="fill:none;" d="M786.915 265.285 A39.6891 39.6891 0 0 0 816.507 247.529"/>
<path class="l4" d="M748.446 318.55L760.282 318.55"/>
<path class="l4" d="M748.446 342.223L766.201 342.223"/>
<path class="l4" d="M798.752 336.305L803.19 336.305"/>
<path class="l4" d="M798.752 371.815L803.19 371.815"/>
<path class="l4" d="M766.201 324.468L772.119 324.468"/>
<path class="l4" d="M766.201 324.468L766.201 359.978"/>
<path class="l4" d="M766.201 359.978L772.119 359.978"/>
<path class="l4" d="M788.395 342.223L801.711 342.223"/>
<path class="l4" d="M829.823 354.06L843.139 354.06"/>
<path class="l4" d="M748.446 389.57L783.956 389.57"/>
<path class="l4" d="M783.956 365.896L783.956 389.57"/>
<path class="l4" d="M783.956 365.896L801.803 365.896"/>
<path class="l4" d="M748.446 365.896L760.282 365.896"/>
<path class="l4" d="M760.282 354.06L760.282 365.896"/>
<path class="l4" d="M760.282 354.06L766.201 354.06"/>
<path class="l4" d="M760.282 318.55L760.282 330.386"/>
<path class="l4" d="M760.282 330.386L766.201 330.386"/>
<path class="l4" style="fill:none;" d="M798.752 371.815 A33.2495 33.2495 0 0 0 798.752 336.305"/>
<path class="l4" style="fill:none;" d="M770.639 359.978 A17.755 17.755 0 0 0 770.639 324.468"/>
<path class="l4" style="fill:none;" d="M829.823 354.06 A33.0879 33.0879 0 0 0 803.19 336.305"/>
<path class="l4" style="fill:none;" d="M803.19 371.815 A33.0879 33.0879 0 0 0 829.823 354.06"/>
<path class="l4" d="M748.446 430.998L764.721 430.998"/>
<path class="l4" d="M748.446 454.671L764.721 454.671"/>
<path class="l4" d="M761.762 425.08L766.201 425.08"/>
<path class="l4" d="M761.762 460.59L766.201 460.59"/>
<path class="l4" d="M801.711 436.916L812.068 436.916"/>
<path class="l4" d="M801.711 436.916L801.711 472.426"/>
<path class="l4" d="M801.711 472.426L812.068 472.426"/>
<path class="l4" d="M792.833 442.835L801.711 442.835"/>
<path class="l4" d="M785.435 466.508L801.711 466.508"/>
<path class="l4" d="M785.435 466.508L785.435 478.345"/>
<path class="l4" d="M748.446 478.345L785.435 478.345"/>
<path class="l4" d="M829.823 454.671L843.139 454.671"/>
<path class="l4" style="fill:none;" d="M761.762 460.59 A33.2495 33.2495 0 0 0 761.762 425.08"/>
<path class="l4" style="fill:none;" d="M812.068 472.426 A17.755 17.755 0 0 0 812.068 436.916"/>
<path class="l4" style="fill:none;" d="M792.833 442.835 A33.0879 33.0879 0 0 0 766.201 425.08"/>
<path class="l4" style="fill:none;" d="M766.201 460.59 A33.0879 33.0879 0 0 0 792.833 442.835"/>
<path class="l4" d="M764.721 525.692L769.16 525.692"/>
<path class="l4" d="M764.721 561.202L769.16 561.202"/>
<path class="l4" d="M801.711 537.528L812.068 537.528"/>
<path class="l4" d="M801.711 537.528L801.711 573.038"/>
<path class="l4" d="M801.711 573.038L812.068 573.038"/>
<path class="l4" d="M829.823 555.283L843.139 555.283"/>
<path class="l4" d="M795.792 543.447L801.711 543.447"/>
<path class="l4" d="M748.446 519.773L760.282 519.773"/>
<path class="l4" d="M748.446 543.447L769.853 543.447"/>
<path class="l4" d="M748.446 590.793L783.956 590.793"/>
<path class="l4" d="M783.956 567.12L783.956 590.793"/>
<path class="l4" d="M783.956 567.12L801.803 567.12"/>
<path class="l4" d="M748.446 567.12L760.282 567.12"/>
<path class="l4" d="M760.282 555.283L760.282 567.12"/>
<path class="l4" d="M760.282 555.283L767.68 555.283"/>
<path class="l4" d="M760.282 519.773L760.282 531.61"/>
<path class="l4" d="M760.282 531.61L767.68 531.61"/>
<path class="l4" style="fill:none;" d="M764.721 561.202 A33.2495 33.2495 0 0 0 764.721 525.692"/>
<path class="l4" style="fill:none;" d="M812.068 573.038 A17.755 17.755 0 0 0 812.068 537.528"/>
<path class="l4" style="fill:none;" d="M795.792 543.447 A33.0879 33.0879 0 0 0 769.16 525.692"/>
<path class="l4" style="fill:none;" d="M769.16 561.202 A33.0879 33.0879 0 0 0 795.792 543.447"/>
<path class="l4" d="M764.721 632.222L769.16 632.222"/>
<path class="l4" d="M764.721 667.732L769.16 667.732"/>
<path class="l4" d="M801.711 644.058L812.068 644.058"/>
<path class="l4" d="M801.711 644.058L801.711 679.568"/>
<path class="l4" d="M801.711 679.568L812.068 679.568"/>
<path class="l4" d="M829.823 661.813L843.139 661.813"/>
<path class="l4" d="M795.792 649.977L801.711 649.977"/>
<path class="l4" d="M748.446 626.303L760.282 626.303"/>
<path class="l4" d="M748.446 649.977L769.853 649.977"/>
<path class="l4" d="M748.446 697.323L783.956 697.323"/>
<path class="l4" d="M783.956 673.65L783.956 697.323"/>
<path class="l4" d="M783.956 673.65L801.803 673.65"/>
<path class="l4" d="M748.446 673.65L760.282 673.65"/>
<path class="l4" d="M760.282 661.813L760.282 673.65"/>
<path class="l4" d="M760.282 661.813L767.68 661.813"/>
<path class="l4" d="M760.282 626.303L760.282 638.14"/>
<path class="l4" d="M760.282 638.14L767.68 638.14"/>
<path class="l4" style="fill:none;" d="M764.721 667.732 A33.2495 33.2495 0 0 0 764.721 632.222"/>
<path class="l4" style="fill:none;" d="M812.068 679.568 A17.755 17.755 0 0 0 812.068 644.058"/>
<path class="l4" style="fill:none;" d="M795.792 649.977 A33.0879 33.0879 0 0 0 769.16 632.222"/>
<path class="l4" style="fill:none;" d="M769.16 667.732 A33.0879 33.0879 0 0 0 795.792 649.977"/>
<path class="l4" d="M760.282 738.752L775.078 738.752"/>
<path class="l4" d="M760.282 762.425L783.123 762.425"/>
<path class="l4" d="M778.037 744.67L786.915 744.67"/>
<path class="l4" d="M778.037 780.18L786.915 780.18"/>
<path class="l4" d="M816.507 762.425L831.302 762.425"/>
<path class="l4" d="M760.282 786.099L775.078 786.099"/>
<path class="l4" d="M775.078 738.752L775.078 750.588"/>
<path class="l4" d="M775.078 750.588L780.997 750.588"/>
<path class="l4" d="M775.078 774.262L775.078 786.099"/>
<path class="l4" d="M775.078 774.262L780.997 774.262"/>
<path class="l4" style="fill:none;" d="M778.037 780.18 A33.2495 33.2495 0 0 0 778.037 744.67"/>
<path class="l4" style="fill:none;" d="M816.507 762.425 A39.6891 39.6891 0 0 0 786.915 744.67"/>
<path class="l4" style="fill:none;" d="M786.915 780.18 A39.6891 39.6891 0 0 0 816.507 762.425"/>
<path class="l4" d="M748.446 833.445L766.201 833.445"/>
<path class="l4" d="M748.446 857.119L766.201 857.119"/>
<path class="l4" d="M798.752 839.364L803.19 839.364"/>
<path class="l4" d="M798.752 874.874L803.19 874.874"/>
<path class="l4" d="M766.201 827.527L772.119 827.527"/>
<path class="l4" d="M766.201 827.527L766.201 863.037"/>
<path class="l4" d="M766.201 863.037L772.119 863.037"/>
<path class="l4" d="M748.446 880.792L789.874 880.792"/>
<path class="l4" d="M788.395 845.282L801.711 845.282"/>
<path class="l4" d="M789.874 868.955L789.874 880.792"/>
<path class="l4" d="M789.874 868.955L801.711 868.955"/>
<path class="l4" d="M835.741 857.119L843.139 857.119"/>
<path class="l4" style="fill:none;" d="M798.752 874.874 A33.2495 33.2495 0 0 0 798.752 839.364"/>
<path class="l4" style="fill:none;" d="M770.639 863.037 A17.755 17.755 0 0 0 770.639 827.527"/>
<path class="l4" style="fill:none;" d="M829.823 857.119 A33.0879 33.0879 0 0 0 803.19 839.364"/>
<path class="l4" style="fill:none;" d="M803.19 874.874 A33.0879 33.0879 0 0 0 829.823 857.119"/>
<circle class="l4" cx="832.782" cy="857.119" r="2.95917" style="fill:none;"/>
<path class="l4" d="M908.241 22.6325L924.516 22.6325"/>
<path class="l4" d="M908.241 46.3059L924.516 46.3059"/>
<path class="l4" d="M921.557 16.7142L925.996 16.7142"/>
<path class="l4" d="M921.557 52.2242L925.996 52.2242"/>
<path class="l4" d="M961.506 28.5509L971.863 28.5509"/>
<path class="l4" d="M961.506 28.5509L961.506 64.0609"/>
<path class="l4" d="M961.506 64.0609L971.863 64.0609"/>
<path class="l4" d="M952.628 34.4692L961.506 34.4692"/>
<path class="l4" d="M945.231 58.1426L945.231 69.9792"/>
<path class="l4" d="M908.241 69.9792L945.231 69.9792"/>
<path class="l4" d="M989.618 46.3059L1002.93 46.3059"/>
<path class="l4" d="M945.231 58.1426L955.588 58.1426"/>
<path class="l4" style="fill:none;" d="M921.557 52.2242 A33.2495 33.2495 0 0 0 921.557 16.7142"/>
<path class="l4" style="fill:none;" d="M971.863 64.0609 A17.755 17.755 0 0 0 971.863 28.5509"/>
<path class="l4" style="fill:none;" d="M952.628 34.4692 A33.0879 33.0879 0 0 0 925.996 16.7142"/>
<path class="l4" style="fill:none;" d="M925.996 52.2242 A33.0879 33.0879 0 0 0 952.628 34.4692"/>
<circle class="l4" cx="958.547" cy="58.1426" r="2.95917" style="fill:none;"/>
<path class="l4" d="M908.241 117.326L924.516 117.326"/>
<path class="l4" d="M908.241 140.999L924.516 140.999"/>
<path class="l4" d="M921.557 111.408L925.996 111.408"/>
<path class="l4" d="M921.557 146.918L925.996 146.918"/>
<path class="l4" d="M961.506 123.244L971.863 123.244"/>
<path class="l4" d="M961.506 123.244L961.506 158.754"/>
<path class="l4" d="M961.506 158.754L971.863 158.754"/>
<path class="l4" d="M952.628 129.163L961.506 129.163"/>
<path class="l4" d="M945.231 152.836L945.231 164.673"/>
<path class="l4" d="M908.241 164.673L945.231 164.673"/>
<path class="l4" d="M989.618 140.999L1002.93 140.999"/>
<path class="l4" d="M945.231 152.836L955.588 152.836"/>
<path class="l4" style="fill:none;" d="M921.557 146.918 A33.2495 33.2495 0 0 0 921.557 111.408"/>
<path class="l4" style="fill:none;" d="M971.863 158.754 A17.755 17.755 0 0 0 971.863 123.244"/>
<path class="l4" style="fill:none;" d="M952.628 129.163 A33.0879 33.0879 0 0 0 925.996 111.408"/>
<path class="l4" style="fill:none;" d="M925.996 146.918 A33.0879 33.0879 0 0 0 952.628 129.163"/>
<circle class="l4" cx="958.547" cy="152.836" r="2.95917" style="fill:none;"/>
<path class="l4" d="M908.241 212.019L924.516 212.019"/>
<path class="l4" d="M908.241 235.693L924.516 235.693"/>
<path class="l4" d="M921.557 206.101L925.996 206.101"/>
<path class="l4" d="M921.557 241.611L925.996 241.611"/>
<path class="l4" d="M961.506 217.938L971.863 217.938"/>
<path class="l4" d="M961.506 217.938L961.506 253.448"/>
<path class="l4" d="M961.506 253.448L971.863 253.448"/>
<path class="l4" d="M952.628 223.856L961.506 223.856"/>
<path class="l4" d="M945.231 247.529L945.231 259.366"/>
<path class="l4" d="M908.241 259.366L945.231 259.366"/>
<path class="l4" d="M989.618 235.693L1002.93 235.693"/>
<path class="l4" d="M945.231 247.529L955.588 247.529"/>
<path class="l4" style="fill:none;" d="M921.557 241.611 A33.2495 33.2495 0 0 0 921.557 206.101"/>
<path class="l4" style="fill:none;" d="M971.863 253.448 A17.755 17.755 0 0 0 971.863 217.938"/>
<path class="l4" style="fill:none;" d="M952.628 223.856 A33.0879 33.0879 0 0 0 925.996 206.101"/>
<path class="l4" style="fill:none;" d="M925.996 241.611 A33.0879 33.0879 0 0 0 952.628 223.856"/>
<circle class="l4" cx="958.547" cy="247.529" r="2.95917" style="fill:none;"/>
<path class="l4" d="M908.241 306.713L924.516 306.713"/>
<path class="l4" d="M908.241 330.386L924.516 330.386"/>
<path class="l4" d="M921.557 300.795L925.996 300.795"/>
<path class="l4" d="M921.557 336.305L925.996 336.305"/>
<path class="l4" d="M961.506 312.631L971.863 312.631"/>
<path class="l4" d="M961.506 312.631L961.506 348.141"/>
<path class="l4" d="M961.506 348.141L971.863 348.141"/>
<path class="l4" d="M952.628 318.55L961.506 318.55"/>
<path class="l4" d="M945.231 342.223L945.231 354.06"/>
<path class="l4" d="M908.241 354.06L945.231 354.06"/>
<path class="l4" d="M989.618 330.386L1002.93 330.386"/>
<path class="l4" d="M945.231 342.223L955.588 342.223"/>
<path class="l4" style="fill:none;" d="M921.557 336.305 A33.2495 33.2495 0 0 0 921.557 300.795"/>
<path class="l4" style="fill:none;" d="M971.863 348.141 A17.755 17.755 0 0 0 971.863 312.631"/>
<path class="l4" style="fill:none;" d="M952.628 318.55 A33.0879 33.0879 0 0 0 925.996 300.795"/>
<path class="l4" style="fill:none;" d="M925.996 336.305 A33.0879 33.0879 0 0 0 952.628 318.55"/>
<circle class="l4" cx="958.547" cy="342.223" r="2.95917" style="fill:none;"/>
<path class="l4" d="M908.241 401.406L924.516 401.406"/>
<path class="l4" d="M908.241 425.08L924.516 425.08"/>
<path class="l4" d="M921.557 395.488L925.996 395.488"/>
<path class="l4" d="M921.557 430.998L925.996 430.998"/>
<path class="l4" d="M961.506 407.325L971.863 407.325"/>
<path class="l4" d="M961.506 407.325L961.506 442.835"/>
<path class="l4" d="M961.506 442.835L971.863 442.835"/>
<path class="l4" d="M952.628 413.243L961.506 413.243"/>
<path class="l4" d="M945.231 436.916L945.231 448.753"/>
<path class="l4" d="M908.241 448.753L945.231 448.753"/>
<path class="l4" d="M989.618 425.08L1002.93 425.08"/>
<path class="l4" d="M945.231 436.916L955.588 436.916"/>
<path class="l4" style="fill:none;" d="M921.557 430.998 A33.2495 33.2495 0 0 0 921.557 395.488"/>
<path class="l4" style="fill:none;" d="M971.863 442.835 A17.755 17.755 0 0 0 971.863 407.325"/>
<path class="l4" style="fill:none;" d="M952.628 413.243 A33.0879 33.0879 0 0 0 925.996 395.488"/>
<path class="l4" style="fill:none;" d="M925.996 430.998 A33.0879 33.0879 0 0 0 952.628 413.243"/>
<circle class="l4" cx="958.547" cy="436.916" r="2.95917" style="fill:none;"/>
<path class="l4" d="M908.241 496.1L924.516 496.1"/>
<path class="l4" d="M908.241 519.773L924.516 519.773"/>
<path class="l4" d="M921.557 490.181L925.996 490.181"/>
<path class="l4" d="M921.557 525.692L925.996 525.692"/>
<path class="l4" d="M961.506 502.018L971.863 502.018"/>
<path class="l4" d="M961.506 502.018L961.506 537.528"/>
<path class="l4" d="M961.506 537.528L971.863 537.528"/>
<path class="l4" d="M952.628 507.937L961.506 507.937"/>
<path class="l4" d="M945.231 531.61L945.231 543.447"/>
<path class="l4" d="M908.241 543.447L945.231 543.447"/>
<path class="l4" d="M945.231 531.61L955.588 531.61"/>
<path class="l4" d="M995.536 519.773L1002.93 519.773"/>
<path class="l4" style="fill:none;" d="M921.557 525.692 A33.2495 33.2495 0 0 0 921.557 490.181"/>
<path class="l4" style="fill:none;" d="M971.863 537.528 A17.755 17.755 0 0 0 971.863 502.018"/>
<path class="l4" style="fill:none;" d="M952.628 507.937 A33.0879 33.0879 0 0 0 925.996 490.181"/>
<path class="l4" style="fill:none;" d="M925.996 525.692 A33.0879 33.0879 0 0 0 952.628 507.937"/>
<circle class="l4" cx="958.547" cy="531.61" r="2.95917" style="fill:none;"/>
<circle class="l4" cx="992.577" cy="519.773" r="2.95917" style="fill:none;"/>
<path class="l4" d="M943.751 590.793L943.751 614.467"/>
<path class="l4" d="M943.751 590.793L967.424 602.63"/>
<path class="l4" d="M943.751 614.467L967.424 602.63"/>
<path class="l4" d="M967.424 602.63L979.261 602.63"/>
<path class="l4" d="M931.914 602.63L943.751 602.63"/>
<path class="l4" d="M943.751 661.813L943.751 685.487"/>
<path class="l4" d="M943.751 661.813L967.424 673.65"/>
<path class="l4" d="M943.751 685.487L967.424 673.65"/>
<path class="l4" d="M967.424 673.65L979.261 673.65"/>
<path class="l4" d="M931.914 673.65L943.751 673.65"/>
<path class="l4" d="M943.751 732.833L943.751 756.507"/>
<path class="l4" d="M943.751 732.833L967.424 744.67"/>
<path class="l4" d="M943.751 756.507L967.424 744.67"/>
<path class="l4" d="M967.424 744.67L979.261 744.67"/>
<path class="l4" d="M931.914 744.67L943.751 744.67"/>
<path class="l4" d="M943.751 803.854L943.751 827.527"/>
<path class="l4" d="M943.751 803.854L967.424 815.69"/>
<path class="l4" d="M943.751 827.527L967.424 815.69"/>
<path class="l4" d="M967.424 815.69L979.261 815.69"/>
<path class="l4" d="M931.914 815.69L943.751 815.69"/>
<path class="l4" d="M943.751 874.874L943.751 898.547"/>
<path class="l4" d="M943.751 874.874L967.424 886.71"/>
<path class="l4" d="M943.751 898.547L967.424 886.71"/>
<path class="l4" d="M967.424 886.71L979.261 886.71"/>
<path class="l4" d="M931.914 886.71L943.751 886.71"/>
<path class="l4" d="M1079.87 22.6325L1079.87 46.3059"/>
<path class="l4" d="M1079.87 22.6325L1103.55 34.4692"/>
<path class="l4" d="M1079.87 46.3059L1103.55 34.4692"/>
<path class="l4" d="M1103.55 34.4692L1115.38 34.4692"/>
<path class="l4" d="M1068.04 34.4692L1079.87 34.4692"/>
<path class="l4" d="M1079.87 93.6526L1079.87 117.326"/>
<path class="l4" d="M1079.87 93.6526L1103.55 105.489"/>
<path class="l4" d="M1079.87 117.326L1103.55 105.489"/>
<path class="l4" d="M1103.55 105.489L1115.38 105.489"/>
<path class="l4" d="M1068.04 105.489L1079.87 105.489"/>
<path class="l4" d="M1079.87 164.673L1079.87 188.346"/>
<path class="l4" d="M1079.87 164.673L1103.55 176.509"/>
<path class="l4" d="M1079.87 188.346L1103.55 176.509"/>
<path class="l4" d="M1103.55 176.509L1115.38 176.509"/>
<path class="l4" d="M1068.04 176.509L1079.87 176.509"/>
<path class="l4" d="M1079.87 235.693L1079.87 259.366"/>
<path class="l4" d="M1079.87 235.693L1103.55 247.529"/>
<path class="l4" d="M1079.87 259.366L1103.55 247.529"/>
<path class="l4" d="M1103.55 247.529L1115.38 247.529"/>
<path class="l4" d="M1068.04 247.529L1079.87 247.529"/>
<path class="l4" d="M1079.87 306.713L1079.87 330.386"/>
<path class="l4" d="M1079.87 306.713L1103.55 318.55"/>
<path class="l4" d="M1079.87 330.386L1103.55 318.55"/>
<path class="l4" d="M1103.55 318.55L1115.38 318.55"/>
<path class="l4" d="M1068.04 318.55L1079.87 318.55"/>
<path class="l4" d="M1079.87 377.733L1079.87 401.406"/>
<path class="l4" d="M1079.87 377.733L1103.55 389.57"/>
<path class="l4" d="M1079.87 401.406L1103.55 389.57"/>
<path class="l4" d="M1103.55 389.57L1115.38 389.57"/>
<path class="l4" d="M1068.04 389.57L1079.87 389.57"/>
<path class="l4" d="M1079.87 448.753L1079.87 472.426"/>
<path class="l4" d="M1079.87 448.753L1103.55 460.59"/>
<path class="l4" d="M1079.87 472.426L1103.55 460.59"/>
<path class="l4" d="M1103.55 460.59L1115.38 460.59"/>
<path class="l4" d="M1068.04 460.59L1079.87 460.59"/>
<path class="l4" d="M1079.87 519.773L1079.87 543.447"/>
<path class="l4" d="M1079.87 519.773L1103.55 531.61"/>
<path class="l4" d="M1079.87 543.447L1103.55 531.61"/>
<path class="l4" d="M1103.55 531.61L1115.38 531.61"/>
<path class="l4" d="M1068.04 531.61L1079.87 531.61"/>
<path class="l4" d="M1079.87 590.793L1079.87 614.467"/>
<path class="l4" d="M1079.87 590.793L1103.55 602.63"/>
<path class="l4" d="M1079.87 614.467L1103.55 602.63"/>
<path class="l4" d="M1103.55 602.63L1115.38 602.63"/>
<path class="l4" d="M1068.04 602.63L1079.87 602.63"/>
<path class="l4" d="M1079.87 661.813L1079.87 685.487"/>
<path class="l4" d="M1079.87 661.813L1103.55 673.65"/>
<path class="l4" d="M1079.87 685.487L1103.55 673.65"/>
<path class="l4" d="M1103.55 673.65L1115.38 673.65"/>
<path class="l4" d="M1068.04 673.65L1079.87 673.65"/>
<path class="l4" d="M1079.87 732.833L1079.87 756.507"/>
<path class="l4" d="M1079.87 732.833L1103.55 744.67"/>
<path class="l4" d="M1079.87 756.507L1103.55 744.67"/>
<path class="l4" d="M1103.55 744.67L1115.38 744.67"/>
<path class="l4" d="M1068.04 744.67L1079.87 744.67"/>
<path class="l4" d="M1079.87 803.854L1079.87 827.527"/>
<path class="l4" d="M1079.87 803.854L1103.55 815.69"/>
<path class="l4" d="M1079.87 827.527L1103.55 815.69"/>
<path class="l4" d="M1103.55 815.69L1115.38 815.69"/>
<path class="l4" d="M1068.04 815.69L1079.87 815.69"/>
<path class="l4" d="M1079.87 874.874L1079.87 898.547"/>
<path class="l4" d="M1079.87 874.874L1103.55 886.71"/>
<path class="l4" d="M1079.87 898.547L1103.55 886.71"/>
<path class="l4" d="M1103.55 886.71L1115.38 886.71"/>
<path class="l4" d="M1068.04 886.71L1079.87 886.71"/>
<path class="l4" d="M1215.99 22.6325L1215.99 46.3059"/>
<path class="l4" d="M1215.99 22.6325L1239.67 34.4692"/>
<path class="l4" d="M1215.99 46.3059L1239.67 34.4692"/>
<path class="l4" d="M1239.67 34.4692L1251.5 34.4692"/>
<path class="l4" d="M1204.16 34.4692L1215.99 34.4692"/>
<path class="l5" d="M621.201 22.6325L624.161 22.6325"/>
<path class="l5" d="M621.201 22.6325L618.982 19.6733L613.803 19.6733L616.023 22.6325L613.803 25.5917L618.982 25.5917L621.201 22.6325"/>
<path class="l5" d="M623.421 21.8927L624.9 21.8927L624.9 23.3723L623.421 23.3723L623.421 21.8927z"/>
<path class="l5" d="M621.201 34.4692L624.161 34.4692"/>
<path class="l5" d="M621.201 34.4692L618.982 31.51L613.803 31.51L616.023 34.4692L613.803 37.4284L618.982 37.4284L621.201 34.4692"/>
<path class="l5" d="M623.421 33.7294L624.9 33.7294L624.9 35.209L623.421 35.209L623.421 33.7294z"/>
<path class="l5" d="M621.201 46.3059L624.161 46.3059"/>
<path class="l5" d="M621.201 46.3059L618.982 43.3467L613.803 43.3467L616.023 46.3059L613.803 49.265L618.982 49.265L621.201 46.3059"/>
<path class="l5" d="M623.421 45.5661L624.9 45.5661L624.9 47.0457L623.421 47.0457L623.421 45.5661z"/>
<path class="l5" d="M621.201 58.1426L624.161 58.1426"/>
<path class="l5" d="M621.201 58.1426L618.982 55.1834L613.803 55.1834L616.023 58.1426L613.803 61.1017L618.982 61.1017L621.201 58.1426"/>
<path class="l5" d="M623.421 57.4028L624.9 57.4028L624.9 58.8824L623.421 58.8824L623.421 57.4028z"/>
<path class="l5" d="M621.201 69.9792L624.161 69.9792"/>
<path class="l5" d="M621.201 69.9792L618.982 67.0201L613.803 67.0201L616.023 69.9792L613.803 72.9384L618.982 72.9384L621.201 69.9792"/>
<path class="l5" d="M623.421 69.2395L624.9 69.2395L624.9 70.719L623.421 70.719L623.421 69.2395z"/>
<path class="l5" d="M621.201 81.8159L624.161 81.8159"/>
<path class="l5" d="M621.201 81.8159L618.982 78.8568L613.803 78.8568L616.023 81.8159L613.803 84.7751L618.982 84.7751L621.201 81.8159"/>
<path class="l5" d="M623.421 81.0761L624.9 81.0761L624.9 82.5557L623.421 82.5557L623.421 81.0761z"/>
<path class="l5" d="M621.201 93.6526L624.161 93.6526"/>
<path class="l5" d="M621.201 93.6526L618.982 90.6934L613.803 90.6934L616.023 93.6526L613.803 96.6118L618.982 96.6118L621.201 93.6526"/>
<path class="l5" d="M623.421 92.9128L624.9 92.9128L624.9 94.3924L623.421 94.3924L623.421 92.9128z"/>
<path class="l5" d="M621.201 105.489L624.161 105.489"/>
<path class="l5" d="M621.201 105.489L618.982 102.53L613.803 102.53L616.023 105.489L613.803 108.448L618.982 108.448L621.201 105.489"/>
<path class="l5" d="M623.421 104.749L624.9 104.749L624.9 106.229L623.421 106.229L623.421 104.749z"/>
<path class="l5" d="M621.201 117.326L624.161 117.326"/>
<path class="l5" d="M621.201 117.326L618.982 114.367L613.803 114.367L616.023 117.326L613.803 120.285L618.982 120.285L621.201 117.326"/>
<path class="l5" d="M623.421 116.586L624.9 116.586L624.9 118.066L623.421 118.066L623.421 116.586z"/>
<path class="l5" d="M621.201 129.163L624.161 129.163"/>
<path class="l5" d="M621.201 129.163L618.982 126.203L613.803 126.203L616.023 129.163L613.803 132.122L618.982 132.122L621.201 129.163"/>
<path class="l5" d="M623.421 128.423L624.9 128.423L624.9 129.902L623.421 129.902L623.421 128.423z"/>
<path class="l5" d="M621.201 140.999L624.161 140.999"/>
<path class="l5" d="M621.201 140.999L618.982 138.04L613.803 138.04L616.023 140.999L613.803 143.959L618.982 143.959L621.201 140.999"/>
<path class="l5" d="M623.421 140.26L624.9 140.26L624.9 141.739L623.421 141.739L623.421 140.26z"/>
<path class="l5" d="M621.201 152.836L624.161 152.836"/>
<path class="l5" d="M621.201 152.836L618.982 149.877L613.803 149.877L616.023 152.836L613.803 155.795L618.982 155.795L621.201 152.836"/>
<path class="l5" d="M623.421 152.096L624.9 152.096L624.9 153.576L623.421 153.576L623.421 152.096z"/>
<path class="l5" d="M621.201 164.673L624.161 164.673"/>
<path class="l5" d="M621.201 164.673L618.982 161.714L613.803 161.714L616.023 164.673L613.803 167.632L618.982 167.632L621.201 164.673"/>
<path class="l5" d="M623.421 163.933L624.9 163.933L624.9 165.412L623.421 165.412L623.421 163.933z"/>
<path class="l5" d="M621.201 176.509L624.161 176.509"/>
<path class="l5" d="M621.201 176.509L618.982 173.55L613.803 173.55L616.023 176.509L613.803 179.469L618.982 179.469L621.201 176.509"/>
<path class="l5" d="M623.421 175.77L624.9 175.77L624.9 177.249L623.421 177.249L623.421 175.77z"/>
<path class="l5" d="M621.201 188.346L624.161 188.346"/>
<path class="l5" d="M621.201 188.346L618.982 185.387L613.803 185.387L616.023 188.346L613.803 191.305L618.982 191.305L621.201 188.346"/>
<path class="l5" d="M623.421 187.606L624.9 187.606L624.9 189.086L623.421 189.086L623.421 187.606z"/>
<path class="l5" d="M621.201 200.183L624.161 200.183"/>
<path class="l5" d="M621.201 200.183L618.982 197.224L613.803 197.224L616.023 200.183L613.803 203.142L618.982 203.142L621.201 200.183"/>
<path class="l5" d="M623.421 199.443L624.9 199.443L624.9 200.923L623.421 200.923L623.421 199.443z"/>
<path class="l5" d="M621.201 212.019L624.161 212.019"/>
<path class="l5" d="M621.201 212.019L618.982 209.06L613.803 209.06L616.023 212.019L613.803 214.979L618.982 214.979L621.201 212.019"/>
<path class="l5" d="M623.421 211.28L624.9 211.28L624.9 212.759L623.421 212.759L623.421 211.28z"/>
<path class="l5" d="M621.201 223.856L624.161 223.856"/>
<path class="l5" d="M621.201 223.856L618.982 220.897L613.803 220.897L616.023 223.856L613.803 226.815L618.982 226.815L621.201 223.856"/>
<path class="l5" d="M623.421 223.116L624.9 223.116L624.9 224.596L623.421 224.596L623.421 223.116z"/>
<path class="l5" d="M671.507 22.6325L676.686 22.6325"/>
<path class="l5" d="M681.864 22.6325L679.645 19.6733L674.466 19.6733L676.686 22.6325L674.466 25.5917L679.645 25.5917L681.864 22.6325"/>
<path class="l5" d="M670.767 21.8927L672.247 21.8927L672.247 23.3723L670.767 23.3723L670.767 21.8927z"/>
<path class="l5" d="M671.507 34.4692L676.686 34.4692"/>
<path class="l5" d="M681.864 34.4692L679.645 31.51L674.466 31.51L676.686 34.4692L674.466 37.4284L679.645 37.4284L681.864 34.4692"/>
<path class="l5" d="M670.767 33.7294L672.247 33.7294L672.247 35.209L670.767 35.209L670.767 33.7294z"/>
<path class="l5" d="M671.507 46.3059L676.686 46.3059"/>
<path class="l5" d="M681.864 46.3059L679.645 43.3467L674.466 43.3467L676.686 46.3059L674.466 49.265L679.645 49.265L681.864 46.3059"/>
<path class="l5" d="M670.767 45.5661L672.247 45.5661L672.247 47.0457L670.767 47.0457L670.767 45.5661z"/>
<path class="l5" d="M671.507 58.1426L676.686 58.1426"/>
<path class="l5" d="M681.864 58.1426L679.645 55.1834L674.466 55.1834L676.686 58.1426L674.466 61.1017L679.645 61.1017L681.864 58.1426"/>
<path class="l5" d="M670.767 57.4028L672.247 57.4028L672.247 58.8824L670.767 58.8824L670.767 57.4028z"/>
<path class="l5" d="M623.421 258.626L624.9 258.626L624.9 260.106L623.421 260.106L623.421 258.626z"/>
<path class="l5" d="M670.767 258.626L672.247 258.626L672.247 260.106L670.767 260.106L670.767 258.626z"/>
<path class="l5" d="M622.681 257.887L625.64 257.887L625.64 260.846L622.681 260.846L622.681 257.887z"/>
<path class="l5" d="M670.028 257.887L672.987 257.887L672.987 260.846L670.028 260.846L670.028 257.887z"/>
<path class="l5" d="M611.584 323.728L613.064 323.728L613.064 325.208L611.584 325.208L611.584 323.728z"/>
<path class="l5" d="M611.584 347.401L613.064 347.401L613.064 348.881L611.584 348.881L611.584 347.401z"/>
<path class="l5" d="M682.604 335.565L684.084 335.565L684.084 337.044L682.604 337.044L682.604 335.565z"/>
<path class="l5" d="M610.844 322.988L613.803 322.988L613.803 325.948L610.844 325.948L610.844 322.988z"/>
<path class="l5" d="M610.844 346.662L613.803 346.662L613.803 349.621L610.844 349.621L610.844 346.662z"/>
<path class="l5" d="M681.864 334.825L684.824 334.825L684.824 337.784L681.864 337.784L681.864 334.825z"/>
<path class="l5" d="M611.584 394.748L613.064 394.748L613.064 396.228L611.584 396.228L611.584 394.748z"/>
<path class="l5" d="M611.584 418.422L613.064 418.422L613.064 419.901L611.584 419.901L611.584 418.422z"/>
<path class="l5" d="M611.584 442.095L613.064 442.095L613.064 443.575L611.584 443.575L611.584 442.095z"/>
<path class="l5" d="M611.584 465.768L613.064 465.768L613.064 467.248L611.584 467.248L611.584 465.768z"/>
<path class="l5" d="M682.604 430.258L684.084 430.258L684.084 431.738L682.604 431.738L682.604 430.258z"/>
<path class="l5" d="M610.844 394.008L613.803 394.008L613.803 396.968L610.844 396.968L610.844 394.008z"/>
<path class="l5" d="M610.844 417.682L613.803 417.682L613.803 420.641L610.844 420.641L610.844 417.682z"/>
<path class="l5" d="M610.844 441.355L613.803 441.355L613.803 444.314L610.844 444.314L610.844 441.355z"/>
<path class="l5" d="M610.844 465.029L613.803 465.029L613.803 467.988L610.844 467.988L610.844 465.029z"/>
<path class="l5" d="M681.864 429.518L684.824 429.518L684.824 432.478L681.864 432.478L681.864 429.518z"/>
<path class="l5" d="M611.584 513.115L613.064 513.115L613.064 514.595L611.584 514.595L611.584 513.115z"/>
<path class="l5" d="M611.584 536.788L613.064 536.788L613.064 538.268L611.584 538.268L611.584 536.788z"/>
<path class="l5" d="M682.604 524.952L684.084 524.952L684.084 526.431L682.604 526.431L682.604 524.952z"/>
<path class="l5" d="M610.844 512.375L613.803 512.375L613.803 515.334L610.844 515.334L610.844 512.375z"/>
<path class="l5" d="M610.844 536.049L613.803 536.049L613.803 539.008L610.844 539.008L610.844 536.049z"/>
<path class="l5" d="M681.864 524.212L684.824 524.212L684.824 527.171L681.864 527.171L681.864 524.212z"/>
<path class="l5" d="M611.584 595.972L613.064 595.972L613.064 597.451L611.584 597.451L611.584 595.972z"/>
<path class="l5" d="M611.584 619.645L613.064 619.645L613.064 621.125L611.584 621.125L611.584 619.645z"/>
<path class="l5" d="M682.604 607.809L684.084 607.809L684.084 609.288L682.604 609.288L682.604 607.809z"/>
<path class="l5" d="M610.844 595.232L613.803 595.232L613.803 598.191L610.844 598.191L610.844 595.232z"/>
<path class="l5" d="M610.844 618.905L613.803 618.905L613.803 621.865L610.844 621.865L610.844 618.905z"/>
<path class="l5" d="M681.864 607.069L684.824 607.069L684.824 610.028L681.864 610.028L681.864 607.069z"/>
<path class="l5" d="M759.543 21.8927L761.022 21.8927L761.022 23.3723L759.543 23.3723L759.543 21.8927z"/>
<path class="l5" d="M759.543 45.5661L761.022 45.5661L761.022 47.0457L759.543 47.0457L759.543 45.5661z"/>
<path class="l5" d="M759.543 69.2395L761.022 69.2395L761.022 70.719L759.543 70.719L759.543 69.2395z"/>
<path class="l5" d="M759.543 92.9128L761.022 92.9128L761.022 94.3924L759.543 94.3924L759.543 92.9128z"/>
<path class="l5" d="M830.563 57.4028L832.042 57.4028L832.042 58.8824L830.563 58.8824L830.563 57.4028z"/>
<path class="l5" d="M758.803 21.1529L761.762 21.1529L761.762 24.1121L758.803 24.1121L758.803 21.1529z"/>
<path class="l5" d="M758.803 44.8263L761.762 44.8263L761.762 47.7855L758.803 47.7855L758.803 44.8263z"/>
<path class="l5" d="M758.803 68.4997L761.762 68.4997L761.762 71.4588L758.803 71.4588L758.803 68.4997z"/>
<path class="l5" d="M758.803 92.173L761.762 92.173L761.762 95.1322L758.803 95.1322L758.803 92.173z"/>
<path class="l5" d="M829.823 56.663L832.782 56.663L832.782 59.6221L829.823 59.6221L829.823 56.663z"/>
<path class="l5" d="M759.543 140.26L761.022 140.26L761.022 141.739L759.543 141.739L759.543 140.26z"/>
<path class="l5" d="M759.543 163.933L761.022 163.933L761.022 165.412L759.543 165.412L759.543 163.933z"/>
<path class="l5" d="M830.563 152.096L832.042 152.096L832.042 153.576L830.563 153.576L830.563 152.096z"/>
<path class="l5" d="M758.803 139.52L761.762 139.52L761.762 142.479L758.803 142.479L758.803 139.52z"/>
<path class="l5" d="M758.803 163.193L761.762 163.193L761.762 166.152L758.803 166.152L758.803 163.193z"/>
<path class="l5" d="M829.823 151.356L832.782 151.356L832.782 154.316L829.823 154.316L829.823 151.356z"/>
<path class="l5" d="M759.543 211.28L761.022 211.28L761.022 212.759L759.543 212.759L759.543 211.28z"/>
<path class="l5" d="M759.543 234.953L761.022 234.953L761.022 236.433L759.543 236.433L759.543 234.953z"/>
<path class="l5" d="M759.543 258.626L761.022 258.626L761.022 260.106L759.543 260.106L759.543 258.626z"/>
<path class="l5" d="M759.543 282.3L761.022 282.3L761.022 283.779L759.543 283.779L759.543 282.3z"/>
<path class="l5" d="M830.563 246.79L832.042 246.79L832.042 248.269L830.563 248.269L830.563 246.79z"/>
<path class="l5" d="M758.803 210.54L761.762 210.54L761.762 213.499L758.803 213.499L758.803 210.54z"/>
<path class="l5" d="M758.803 234.213L761.762 234.213L761.762 237.172L758.803 237.172L758.803 234.213z"/>
<path class="l5" d="M758.803 257.887L761.762 257.887L761.762 260.846L758.803 260.846L758.803 257.887z"/>
<path class="l5" d="M758.803 281.56L761.762 281.56L761.762 284.519L758.803 284.519L758.803 281.56z"/>
<path class="l5" d="M829.823 246.05L832.782 246.05L832.782 249.009L829.823 249.009L829.823 246.05z"/>
<path class="l5" d="M747.706 317.81L749.186 317.81L749.186 319.289L747.706 319.289L747.706 317.81z"/>
<path class="l5" d="M747.706 341.483L749.186 341.483L749.186 342.963L747.706 342.963L747.706 341.483z"/>
<path class="l5" d="M747.706 365.157L749.186 365.157L749.186 366.636L747.706 366.636L747.706 365.157z"/>
<path class="l5" d="M747.706 388.83L749.186 388.83L749.186 390.309L747.706 390.309L747.706 388.83z"/>
<path class="l5" d="M842.399 353.32L843.879 353.32L843.879 354.799L842.399 354.799L842.399 353.32z"/>
<path class="l5" d="M746.966 317.07L749.925 317.07L749.925 320.029L746.966 320.029L746.966 317.07z"/>
<path class="l5" d="M746.966 340.743L749.925 340.743L749.925 343.703L746.966 343.703L746.966 340.743z"/>
<path class="l5" d="M746.966 364.417L749.925 364.417L749.925 367.376L746.966 367.376L746.966 364.417z"/>
<path class="l5" d="M746.966 388.09L749.925 388.09L749.925 391.049L746.966 391.049L746.966 388.09z"/>
<path class="l5" d="M841.66 352.58L844.619 352.58L844.619 355.539L841.66 355.539L841.66 352.58z"/>
<path class="l5" d="M747.706 430.258L749.186 430.258L749.186 431.738L747.706 431.738L747.706 430.258z"/>
<path class="l5" d="M747.706 453.932L749.186 453.932L749.186 455.411L747.706 455.411L747.706 453.932z"/>
<path class="l5" d="M747.706 477.605L749.186 477.605L749.186 479.085L747.706 479.085L747.706 477.605z"/>
<path class="l5" d="M842.399 453.932L843.879 453.932L843.879 455.411L842.399 455.411L842.399 453.932z"/>
<path class="l5" d="M746.966 429.518L749.925 429.518L749.925 432.478L746.966 432.478L746.966 429.518z"/>
<path class="l5" d="M746.966 453.192L749.925 453.192L749.925 456.151L746.966 456.151L746.966 453.192z"/>
<path class="l5" d="M746.966 476.865L749.925 476.865L749.925 479.824L746.966 479.824L746.966 476.865z"/>
<path class="l5" d="M841.66 453.192L844.619 453.192L844.619 456.151L841.66 456.151L841.66 453.192z"/>
<path class="l5" d="M747.706 519.033L749.186 519.033L749.186 520.513L747.706 520.513L747.706 519.033z"/>
<path class="l5" d="M747.706 542.707L749.186 542.707L749.186 544.186L747.706 544.186L747.706 542.707z"/>
<path class="l5" d="M747.706 566.38L749.186 566.38L749.186 567.86L747.706 567.86L747.706 566.38z"/>
<path class="l5" d="M747.706 590.053L749.186 590.053L749.186 591.533L747.706 591.533L747.706 590.053z"/>
<path class="l5" d="M842.399 554.543L843.879 554.543L843.879 556.023L842.399 556.023L842.399 554.543z"/>
<path class="l5" d="M746.966 518.294L749.925 518.294L749.925 521.253L746.966 521.253L746.966 518.294z"/>
<path class="l5" d="M746.966 541.967L749.925 541.967L749.925 544.926L746.966 544.926L746.966 541.967z"/>
<path class="l5" d="M746.966 565.64L749.925 565.64L749.925 568.6L746.966 568.6L746.966 565.64z"/>
<path class="l5" d="M746.966 589.314L749.925 589.314L749.925 592.273L746.966 592.273L746.966 589.314z"/>
<path class="l5" d="M841.66 553.804L844.619 553.804L844.619 556.763L841.66 556.763L841.66 553.804z"/>
<path class="l5" d="M747.706 625.564L749.186 625.564L749.186 627.043L747.706 627.043L747.706 625.564z"/>
<path class="l5" d="M747.706 649.237L749.186 649.237L749.186 650.716L747.706 650.716L747.706 649.237z"/>
<path class="l5" d="M747.706 672.91L749.186 672.91L749.186 674.39L747.706 674.39L747.706 672.91z"/>
<path class="l5" d="M747.706 696.584L749.186 696.584L749.186 698.063L747.706 698.063L747.706 696.584z"/>
<path class="l5" d="M842.399 661.074L843.879 661.074L843.879 662.553L842.399 662.553L842.399 661.074z"/>
<path class="l5" d="M746.966 624.824L749.925 624.824L749.925 627.783L746.966 627.783L746.966 624.824z"/>
<path class="l5" d="M746.966 648.497L749.925 648.497L749.925 651.456L746.966 651.456L746.966 648.497z"/>
<path class="l5" d="M746.966 672.17L749.925 672.17L749.925 675.13L746.966 675.13L746.966 672.17z"/>
<path class="l5" d="M746.966 695.844L749.925 695.844L749.925 698.803L746.966 698.803L746.966 695.844z"/>
<path class="l5" d="M841.66 660.334L844.619 660.334L844.619 663.293L841.66 663.293L841.66 660.334z"/>
<path class="l5" d="M759.543 738.012L761.022 738.012L761.022 739.492L759.543 739.492L759.543 738.012z"/>
<path class="l5" d="M759.543 761.685L761.022 761.685L761.022 763.165L759.543 763.165L759.543 761.685z"/>
<path class="l5" d="M759.543 785.359L761.022 785.359L761.022 786.838L759.543 786.838L759.543 785.359z"/>
<path class="l5" d="M830.563 761.685L832.042 761.685L832.042 763.165L830.563 763.165L830.563 761.685z"/>
<path class="l5" d="M758.803 737.272L761.762 737.272L761.762 740.231L758.803 740.231L758.803 737.272z"/>
<path class="l5" d="M758.803 760.946L761.762 760.946L761.762 763.905L758.803 763.905L758.803 760.946z"/>
<path class="l5" d="M758.803 784.619L761.762 784.619L761.762 787.578L758.803 787.578L758.803 784.619z"/>
<path class="l5" d="M829.823 760.946L832.782 760.946L832.782 763.905L829.823 763.905L829.823 760.946z"/>
<path class="l5" d="M747.706 832.705L749.186 832.705L749.186 834.185L747.706 834.185L747.706 832.705z"/>
<path class="l5" d="M747.706 856.379L749.186 856.379L749.186 857.858L747.706 857.858L747.706 856.379z"/>
<path class="l5" d="M747.706 880.052L749.186 880.052L749.186 881.532L747.706 881.532L747.706 880.052z"/>
<path class="l5" d="M842.399 856.379L843.879 856.379L843.879 857.858L842.399 857.858L842.399 856.379z"/>
<path class="l5" d="M746.966 831.966L749.925 831.966L749.925 834.925L746.966 834.925L746.966 831.966z"/>
<path class="l5" d="M746.966 855.639L749.925 855.639L749.925 858.598L746.966 858.598L746.966 855.639z"/>
<path class="l5" d="M746.966 879.312L749.925 879.312L749.925 882.272L746.966 882.272L746.966 879.312z"/>
<path class="l5" d="M841.66 855.639L844.619 855.639L844.619 858.598L841.66 858.598L841.66 855.639z"/>
<path class="l5" d="M907.501 21.8927L908.981 21.8927L908.981 23.3723L907.501 23.3723L907.501 21.8927z"/>
<path class="l5" d="M907.501 45.5661L908.981 45.5661L908.981 47.0457L907.501 47.0457L907.501 45.5661z"/>
<path class="l5" d="M907.501 69.2395L908.981 69.2395L908.981 70.719L907.501 70.719L907.501 69.2395z"/>
<path class="l5" d="M1002.19 45.5661L1003.67 45.5661L1003.67 47.0457L1002.19 47.0457L1002.19 45.5661z"/>
<path class="l5" d="M906.761 21.1529L909.721 21.1529L909.721 24.1121L906.761 24.1121L906.761 21.1529z"/>
<path class="l5" d="M906.761 44.8263L909.721 44.8263L909.721 47.7855L906.761 47.7855L906.761 44.8263z"/>
<path class="l5" d="M906.761 68.4997L909.721 68.4997L909.721 71.4588L906.761 71.4588L906.761 68.4997z"/>
<path class="l5" d="M1001.45 44.8263L1004.41 44.8263L1004.41 47.7855L1001.45 47.7855L1001.45 44.8263z"/>
<path class="l5" d="M907.501 116.586L908.981 116.586L908.981 118.066L907.501 118.066L907.501 116.586z"/>
<path class="l5" d="M907.501 140.26L908.981 140.26L908.981 141.739L907.501 141.739L907.501 140.26z"/>
<path class="l5" d="M907.501 163.933L908.981 163.933L908.981 165.412L907.501 165.412L907.501 163.933z"/>
<path class="l5" d="M1002.19 140.26L1003.67 140.26L1003.67 141.739L1002.19 141.739L1002.19 140.26z"/>
<path class="l5" d="M906.761 115.846L909.721 115.846L909.721 118.806L906.761 118.806L906.761 115.846z"/>
<path class="l5" d="M906.761 139.52L909.721 139.52L909.721 142.479L906.761 142.479L906.761 139.52z"/>
<path class="l5" d="M906.761 163.193L909.721 163.193L909.721 166.152L906.761 166.152L906.761 163.193z"/>
<path class="l5" d="M1001.45 139.52L1004.41 139.52L1004.41 142.479L1001.45 142.479L1001.45 139.52z"/>
<path class="l5" d="M907.501 211.28L908.981 211.28L908.981 212.759L907.501 212.759L907.501 211.28z"/>
<path class="l5" d="M907.501 234.953L908.981 234.953L908.981 236.433L907.501 236.433L907.501 234.953z"/>
<path class="l5" d="M907.501 258.626L908.981 258.626L908.981 260.106L907.501 260.106L907.501 258.626z"/>
<path class="l5" d="M1002.19 234.953L1003.67 234.953L1003.67 236.433L1002.19 236.433L1002.19 234.953z"/>
<path class="l5" d="M906.761 210.54L909.721 210.54L909.721 213.499L906.761 213.499L906.761 210.54z"/>
<path class="l5" d="M906.761 234.213L909.721 234.213L909.721 237.172L906.761 237.172L906.761 234.213z"/>
<path class="l5" d="M906.761 257.887L909.721 257.887L909.721 260.846L906.761 260.846L906.761 257.887z"/>
<path class="l5" d="M1001.45 234.213L1004.41 234.213L1004.41 237.172L1001.45 237.172L1001.45 234.213z"/>
<path class="l5" d="M907.501 305.973L908.981 305.973L908.981 307.453L907.501 307.453L907.501 305.973z"/>
<path class="l5" d="M907.501 329.646L908.981 329.646L908.981 331.126L907.501 331.126L907.501 329.646z"/>
<path class="l5" d="M907.501 353.32L908.981 353.32L908.981 354.799L907.501 354.799L907.501 353.32z"/>
<path class="l5" d="M1002.19 329.646L1003.67 329.646L1003.67 331.126L1002.19 331.126L1002.19 329.646z"/>
<path class="l5" d="M906.761 305.233L909.721 305.233L909.721 308.192L906.761 308.192L906.761 305.233z"/>
<path class="l5" d="M906.761 328.907L909.721 328.907L909.721 331.866L906.761 331.866L906.761 328.907z"/>
<path class="l5" d="M906.761 352.58L909.721 352.58L909.721 355.539L906.761 355.539L906.761 352.58z"/>
<path class="l5" d="M1001.45 328.907L1004.41 328.907L1004.41 331.866L1001.45 331.866L1001.45 328.907z"/>
<path class="l5" d="M907.501 400.667L908.981 400.667L908.981 402.146L907.501 402.146L907.501 400.667z"/>
<path class="l5" d="M907.501 424.34L908.981 424.34L908.981 425.82L907.501 425.82L907.501 424.34z"/>
<path class="l5" d="M907.501 448.013L908.981 448.013L908.981 449.493L907.501 449.493L907.501 448.013z"/>
<path class="l5" d="M1002.19 424.34L1003.67 424.34L1003.67 425.82L1002.19 425.82L1002.19 424.34z"/>
<path class="l5" d="M906.761 399.927L909.721 399.927L909.721 402.886L906.761 402.886L906.761 399.927z"/>
<path class="l5" d="M906.761 423.6L909.721 423.6L909.721 426.559L906.761 426.559L906.761 423.6z"/>
<path class="l5" d="M906.761 447.274L909.721 447.274L909.721 450.233L906.761 450.233L906.761 447.274z"/>
<path class="l5" d="M1001.45 423.6L1004.41 423.6L1004.41 426.559L1001.45 426.559L1001.45 423.6z"/>
<path class="l5" d="M907.501 495.36L908.981 495.36L908.981 496.84L907.501 496.84L907.501 495.36z"/>
<path class="l5" d="M907.501 519.033L908.981 519.033L908.981 520.513L907.501 520.513L907.501 519.033z"/>
<path class="l5" d="M907.501 542.707L908.981 542.707L908.981 544.186L907.501 544.186L907.501 542.707z"/>
<path class="l5" d="M1002.19 519.033L1003.67 519.033L1003.67 520.513L1002.19 520.513L1002.19 519.033z"/>
<path class="l5" d="M906.761 494.62L909.721 494.62L909.721 497.579L906.761 497.579L906.761 494.62z"/>
<path class="l5" d="M906.761 518.294L909.721 518.294L909.721 521.253L906.761 521.253L906.761 518.294z"/>
<path class="l5" d="M906.761 541.967L909.721 541.967L909.721 544.926L906.761 544.926L906.761 541.967z"/>
<path class="l5" d="M1001.45 518.294L1004.41 518.294L1004.41 521.253L1001.45 521.253L1001.45 518.294z"/>
<path class="l5" d="M931.174 601.89L932.654 601.89L932.654 603.37L931.174 603.37L931.174 601.89z"/>
<path class="l5" d="M978.521 601.89L980.001 601.89L980.001 603.37L978.521 603.37L978.521 601.89z"/>
<path class="l5" d="M930.435 601.15L933.394 601.15L933.394 604.11L930.435 604.11L930.435 601.15z"/>
<path class="l5" d="M977.781 601.15L980.741 601.15L980.741 604.11L977.781 604.11L977.781 601.15z"/>
<path class="l5" d="M931.174 672.91L932.654 672.91L932.654 674.39L931.174 674.39L931.174 672.91z"/>
<path class="l5" d="M978.521 672.91L980.001 672.91L980.001 674.39L978.521 674.39L978.521 672.91z"/>
<path class="l5" d="M930.435 672.17L933.394 672.17L933.394 675.13L930.435 675.13L930.435 672.17z"/>
<path class="l5" d="M977.781 672.17L980.741 672.17L980.741 675.13L977.781 675.13L977.781 672.17z"/>
<path class="l5" d="M931.174 743.93L932.654 743.93L932.654 745.41L931.174 745.41L931.174 743.93z"/>
<path class="l5" d="M978.521 743.93L980.001 743.93L980.001 745.41L978.521 745.41L978.521 743.93z"/>
<path class="l5" d="M930.435 743.191L933.394 743.191L933.394 746.15L930.435 746.15L930.435 743.191z"/>
<path class="l5" d="M977.781 743.191L980.741 743.191L980.741 746.15L977.781 746.15L977.781 743.191z"/>
<path class="l5" d="M931.174 814.95L932.654 814.95L932.654 816.43L931.174 816.43L931.174 814.95z"/>
<path class="l5" d="M978.521 814.95L980.001 814.95L980.001 816.43L978.521 816.43L978.521 814.95z"/>
<path class="l5" d="M930.435 814.211L933.394 814.211L933.394 817.17L930.435 817.17L930.435 814.211z"/>
<path class="l5" d="M977.781 814.211L980.741 814.211L980.741 817.17L977.781 817.17L977.781 814.211z"/>
<path class="l5" d="M931.174 885.971L932.654 885.971L932.654 887.45L931.174 887.45L931.174 885.971z"/>
<path class="l5" d="M978.521 885.971L980.001 885.971L980.001 887.45L978.521 887.45L978.521 885.971z"/>
<path class="l5" d="M930.435 885.231L933.394 885.231L933.394 888.19L930.435 888.19L930.435 885.231z"/>
<path class="l5" d="M977.781 885.231L980.741 885.231L980.741 888.19L977.781 888.19L977.781 885.231z"/>
<path class="l5" d="M1067.3 33.7294L1068.78 33.7294L1068.78 35.209L1067.3 35.209L1067.3 33.7294z"/>
<path class="l5" d="M1114.64 33.7294L1116.12 33.7294L1116.12 35.209L1114.64 35.209L1114.64 33.7294z"/>
<path class="l5" d="M1066.56 32.9896L1069.52 32.9896L1069.52 35.9488L1066.56 35.9488L1066.56 32.9896z"/>
<path class="l5" d="M1113.9 32.9896L1116.86 32.9896L1116.86 35.9488L1113.9 35.9488L1113.9 32.9896z"/>
<path class="l5" d="M1067.3 104.749L1068.78 104.749L1068.78 106.229L1067.3 106.229L1067.3 104.749z"/>
<path class="l5" d="M1114.64 104.749L1116.12 104.749L1116.12 106.229L1114.64 106.229L1114.64 104.749z"/>
<path class="l5" d="M1066.56 104.01L1069.52 104.01L1069.52 106.969L1066.56 106.969L1066.56 104.01z"/>
<path class="l5" d="M1113.9 104.01L1116.86 104.01L1116.86 106.969L1113.9 106.969L1113.9 104.01z"/>
<path class="l5" d="M1067.3 175.77L1068.78 175.77L1068.78 177.249L1067.3 177.249L1067.3 175.77z"/>
<path class="l5" d="M1114.64 175.77L1116.12 175.77L1116.12 177.249L1114.64 177.249L1114.64 175.77z"/>
<path class="l5" d="M1066.56 175.03L1069.52 175.03L1069.52 177.989L1066.56 177.989L1066.56 175.03z"/>
<path class="l5" d="M1113.9 175.03L1116.86 175.03L1116.86 177.989L1113.9 177.989L1113.9 175.03z"/>
<path class="l5" d="M1067.3 246.79L1068.78 246.79L1068.78 248.269L1067.3 248.269L1067.3 246.79z"/>
<path class="l5" d="M1114.64 246.79L1116.12 246.79L1116.12 248.269L1114.64 248.269L1114.64 246.79z"/>
<path class="l5" d="M1066.56 246.05L1069.52 246.05L1069.52 249.009L1066.56 249.009L1066.56 246.05z"/>
<path class="l5" d="M1113.9 246.05L1116.86 246.05L1116.86 249.009L1113.9 249.009L1113.9 246.05z"/>
<path class="l5" d="M1067.3 317.81L1068.78 317.81L1068.78 319.289L1067.3 319.289L1067.3 317.81z"/>
<path class="l5" d="M1114.64 317.81L1116.12 317.81L1116.12 319.289L1114.64 319.289L1114.64 317.81z"/>
<path class="l5" d="M1066.56 317.07L1069.52 317.07L1069.52 320.029L1066.56 320.029L1066.56 317.07z"/>
<path class="l5" d="M1113.9 317.07L1116.86 317.07L1116.86 320.029L1113.9 320.029L1113.9 317.07z"/>
<path class="l5" d="M1067.3 388.83L1068.78 388.83L1068.78 390.309L1067.3 390.309L1067.3 388.83z"/>
<path class="l5" d="M1114.64 388.83L1116.12 388.83L1116.12 390.309L1114.64 390.309L1114.64 388.83z"/>
<path class="l5" d="M1066.56 388.09L1069.52 388.09L1069.52 391.049L1066.56 391.049L1066.56 388.09z"/>
<path class="l5" d="M1113.9 388.09L1116.86 388.09L1116.86 391.049L1113.9 391.049L1113.9 388.09z"/>
<path class="l5" d="M1067.3 459.85L1068.78 459.85L1068.78 461.33L1067.3 461.33L1067.3 459.85z"/>
<path class="l5" d="M1114.64 459.85L1116.12 459.85L1116.12 461.33L1114.64 461.33L1114.64 459.85z"/>
<path class="l5" d="M1066.56 459.11L1069.52 459.11L1069.52 462.069L1066.56 462.069L1066.56 459.11z"/>
<path class="l5" d="M1113.9 459.11L1116.86 459.11L1116.86 462.069L1113.9 462.069L1113.9 459.11z"/>
<path class="l5" d="M1067.3 530.87L1068.78 530.87L1068.78 532.35L1067.3 532.35L1067.3 530.87z"/>
<path class="l5" d="M1114.64 530.87L1116.12 530.87L1116.12 532.35L1114.64 532.35L1114.64 530.87z"/>
<path class="l5" d="M1066.56 530.13L1069.52 530.13L1069.52 533.089L1066.56 533.089L1066.56 530.13z"/>
<path class="l5" d="M1113.9 530.13L1116.86 530.13L1116.86 533.089L1113.9 533.089L1113.9 530.13z"/>
<path class="l5" d="M1067.3 601.89L1068.78 601.89L1068.78 603.37L1067.3 603.37L1067.3 601.89z"/>
<path class="l5" d="M1114.64 601.89L1116.12 601.89L1116.12 603.37L1114.64 603.37L1114.64 601.89z"/>
<path class="l5" d="M1066.56 601.15L1069.52 601.15L1069.52 604.11L1066.56 604.11L1066.56 601.15z"/>
<path class="l5" d="M1113.9 601.15L1116.86 601.15L1116.86 604.11L1113.9 604.11L1113.9 601.15z"/>
<path class="l5" d="M1067.3 672.91L1068.78 672.91L1068.78 674.39L1067.3 674.39L1067.3 672.91z"/>
<path class="l5" d="M1114.64 672.91L1116.12 672.91L1116.12 674.39L1114.64 674.39L1114.64 672.91z"/>
<path class="l5" d="M1066.56 672.17L1069.52 672.17L1069.52 675.13L1066.56 675.13L1066.56 672.17z"/>
<path class="l5" d="M1113.9 672.17L1116.86 672.17L1116.86 675.13L1113.9 675.13L1113.9 672.17z"/>
<path class="l5" d="M1067.3 743.93L1068.78 743.93L1068.78 745.41L1067.3 745.41L1067.3 743.93z"/>
<path class="l5" d="M1114.64 743.93L1116.12 743.93L1116.12 745.41L1114.64 745.41L1114.64 743.93z"/>
<path class="l5" d="M1066.56 743.191L1069.52 743.191L1069.52 746.15L1066.56 746.15L1066.56 743.191z"/>
<path class="l5" d="M1113.9 743.191L1116.86 743.191L1116.86 746.15L1113.9 746.15L1113.9 743.191z"/>
<path class="l5" d="M1067.3 814.95L1068.78 814.95L1068.78 816.43L1067.3 816.43L1067.3 814.95z"/>
<path class="l5" d="M1114.64 814.95L1116.12 814.95L1116.12 816.43L1114.64 816.43L1114.64 814.95z"/>
<path class="l5" d="M1066.56 814.211L1069.52 814.211L1069.52 817.17L1066.56 817.17L1066.56 814.211z"/>
<path class="l5" d="M1113.9 814.211L1116.86 814.211L1116.86 817.17L1113.9 817.17L1113.9 814.211z"/>
<path class="l5" d="M1067.3 885.971L1068.78 885.971L1068.78 887.45L1067.3 887.45L1067.3 885.971z"/>
<path class="l5" d="M1114.64 885.971L1116.12 885.971L1116.12 887.45L1114.64 887.45L1114.64 885.971z"/>
<path class="l5" d="M1066.56 885.231L1069.52 885.231L1069.52 888.19L1066.56 888.19L1066.56 885.231z"/>
<path class="l5" d="M1113.9 885.231L1116.86 885.231L1116.86 888.19L1113.9 888.19L1113.9 885.231z"/>
<path class="l5" d="M1203.42 33.7294L1204.9 33.7294L1204.9 35.209L1203.42 35.209L1203.42 33.7294z"/>
<path class="l5" d="M1250.76 33.7294L1252.24 33.7294L1252.24 35.209L1250.76 35.209L1250.76 33.7294z"/>
<path class="l5" d="M1202.68 32.9896L1205.64 32.9896L1205.64 35.9488L1202.68 35.9488L1202.68 32.9896z"/>
<path class="l5" d="M1250.03 32.9896L1252.98 32.9896L1252.98 35.9488L1250.03 35.9488L1250.03 32.9896z"/>
</svg>
